<?xml version="1.0" encoding="UTF-8"?>
<svg version="1.1" viewBox="0 0 2000 2000" width="1280" height="1280" xmlns="http://www.w3.org/2000/svg">
<path transform="translate(998,875)" d="m0 0 12 5 15 8 26 12 25 10 36 12 23 6 66 12 10 2 2 3-1 34-5 86-4 36-6 29-8 31-9 25-10 24-9 19-13 22-12 19-13 18-11 14-12 13-25 25-11 9-10 9-17 13-22 14-16 7-7-1-12-6-24-16-14-11-14-12-20-18-17-17-9-11-12-15-16-24-16-26-8-16-7-15-12-31-8-26-9-39-4-29-3-39-4-77v-19l3-2 73-13 30-8 35-12 33-14 32-16zm-74 128v8l4 9 9 8 4 2-12-2 3 9 8 7 8 4 7 2-4-17-5-11-2-5-13-10-5-4zm24 17m1 1 6 12 9 6 5 2-1-5-8-9-9-6zm-27-33 2 9 7 7 14 10 19 12 7 8 4 6 1 5-6-3v2l-10-4h-4l3 9 13 5-3 2 2 6v2h-3l-5-9-20-6h-2l1 4 7 8 11 4 3 1-7 2 3 5 9 6 10 4-1 4-6 7-11 8-1 2-3 1 1 5 2 2h4l7-8 6-5 1-1-4 6-6 7 2 4 2 1h8l7-10 2-4-1 5-1 9 2 3 5-1 5-5 1-5-5-21v-3l2-1v6l3 2 1-8 15 3 2-11h11l6 2-2 4-7 6-5 4v2l-7-2v-2l-9-2-1 1 1 7 8 13 10 14 10 9 11 8 14 3 14 1 2-13v-7l-2-2-1 13h-2l1-13 2-3v-3h-2l2-8-2-3v-3l12-2 5-1 27 14 15 9 12 9 7 6 5 5h1l2-10 5-15 4-7v-2l3-1-1-2-38-1-23-5-14-4-2-5-4-1-3 3-5-3v2l-11-4-2-5h-2l-1 3-16-5-5-2 3-12-1-13-6-12-8-8-10-5-4-1h-14l-12 5-7 6h-2l-7-12-7-6-11-7-12-8-12-11-6-5zm47 53m-34 50-57 12-46 8-6 2v2l10 3 16-1 24-4 27-7 27-8 4-1h26l7-3-1-2-7-1zm65 1v7l1 5v15l3 1h13l-6-8-7-17h-2l-1-3zm-62 7-3 3-4 7-4 5-6 4 1 2 10-1 12-11 4-6v-3zm16 2 1 3v-3zm-23 0-15 4-4 3-3 6-6 5-2 4 6-1 14-7 10-10 1-4zm18 6-5 4-5 6v2h6l8-6v-5zm-43 1-27 7-3 2 1 5h9l12-3 10-9v-2zm263 1-3 12-7 17 1 2 5-8 5-13 1-3v-7zm-213 6-4 3v3l7-1 1-3zm26 0-2 2 1 5h2l1-7zm-114 2-18 3-16 1h-2l2 4 5 4h9l19-3 6-2v-6zm99 0-2 4h6l-1-4zm34 3 2 4 2 2 4 1 6 3 6-2-7 10-7 21-5 10 1-6 5-12 3-11 2-7-8-6h-2l1 4 4 3-1 5-3-4-4 2-7 14-11 17-11 13-11 10-14 11-16 13-7 4v11l-1 15 4-2 13-12 10-10 9-11 11-13 7-10 7-11 15-23-2 6-12 20-12 18-8 10-11 13-6 6v2l-3 1-17 17-14 11-9 9-8 7-3 4 1 2 11-7 8-2 23-2 5-2 7-8 7-7 7-8 11-13-2 5-16 20-1 4 2 1h12l10-3 9-6 8-9 8-16 12-29 6-16 2-5-5 21-11 28-8 17v2l5-1 14-8 6-5 5-9 3-11 3-21 2-6-1 17 4-4 3-9v-9l-3-16-3-11 8 19 1 4v15l-8 16-3 7-4 12v2l5-1 8-7 5-6 4-11v-22l-3-12-5-13-8-15-7-7h-2l-2 6-2 1-1-8-2-7-16-3zm-69 3-21 1-12 3-25 12-10 4 1 4 9 4 7-1 19-10 12-8-5 5-18 12-8 4v2l7 3 9-2 13-8 24-18-4 5-7 5v2l-4 2-15 11-4 3v2h9l10-5 17-13 14-12 3-1-11 11-8 7-15 12-2 1v2l12-1 12-6 13-11 17-12-4 5-11 9-15 12v2l10-1 10-4 11-7 13-13 6-9v-2h-36zm-44 2-20 3-24 4 4 5 7 3h9l13-5 17-8 1-2zm270 15m-188 29m-2 1-9 4-14 8-8 4v5l6-2 11-7 12-9 4-2zm4 2-10 8-13 9-15 9-2 2 1 6 4-1 11-8 10-9 10-8 6-8z" fill="#030302"/>
<path transform="translate(997,404)" d="m0 0 4 1 5 6 4 8 5-3h9l3 2-1 7-4 7-5 5v2l8 2 3 3v3l-6 2-4 12-1 5 11-6 7-1 5 2 5 5 1 5-4 3 8 10 3 3 7-1 3 3-1 6-7 8-6 2h-8l-1 8-4 6-7 2h-7l-5-1v-4h2l-1-8h-4l-4 8-1 8 3 13 7 9 7 4 4 1h9l4-4v-7l-3-7 5-3 6-8 2-5 4 2 7 11 3 2-1 5-3 6 1 6 3 3 9 3 7-1 6-5 3-7v-7l-2-3-10-2-1-1v-9l2-4 2-1h12l4 1 1-7h4l-1 8-3 5-5-1-6-2h-7l1 4 6 2 6 4 2 4v11l-4 8-9 7-3 1h-12l-9-4-3-3-2-7v-18h-4l-2 3v17l-6 7-5 2h-9l-11-4-8-7-6-9-4-12 1-9 1-4-2 9-4 1 1 10 7 16 7 9 6 5 3 1h17l7-3 8-8h3l2 5 9 8 5 2h8l10-3 8-7 4-9 4-12 4-5 6-5 2-5-4 1-4 2-2-1-1-14-8-7-3-6v-11l4-5 6-3 9 1 6 5 2 4v9l-7 8-3 4 2 8 10 3 3 3 1 3v10l-8-1-4-1-5 5-1 3v9l4 10 4 3 6-1 3-4 1-16 6-7h2l2-8h4l4 14 3 5-2 5-3 4-1 4 2 5 1 1 9-1 6-4 7-9 3-5 2-15-3-9-5-3-2 10-4 7-4-1-7-7-1-7 2-6 3-5 5-2-4-7-5-10-1-8 4-2 13 3 2-5 7-6 2-1-2-4v-6l5-6 6-3 7-2 9-9-1-8 6-1 7 4 3 4 5-2 7-4h9l6 3 5 7 1 7-3 5-5 4h-5l-4-5-1-2-6 2-3 4-5 16-7 14-1 27-4 11-6 9-5 4-6 15-7 11-12 12-1 2 10 2 5 3 1 7-3 4-5 2-28-3-9-1 16 2 19 3 3 3 1 6-4 13-6 9 1 4 3 5-1 7-2 3-13-1-43-6-37-4-20-2-30-1h-43l-30 1-43 4-32 4-26 5h-6l-3-5-1-5 4-5-2-6-6-13-1-4v-7l2-7-5-1-5-6 2-4 4-5-8-4-9-9-8-13-5-11-3-5-6-5-6-10-2-7v-30h-2l-6-13-4-14-8-8-5 7-6 1-6-4-2-3v-7l5-8 6-4 6-1 8 3 8 4 3 1 7 12 1 4-1 6 5-1 5-4-2-5-5-4-6-3-1-6h-4l2-5 5-3h6l1 3-1 8 10 7 8 3 6 5 3 9-2 4-6 1-5 1 5 1 9-1 5 4 3 5 10-1 5-2 1 1-1 11-5 10-3 3v2l5 4 4 8v6l-5 8-3 3-5-1-2-7-4-8h-2l-4 10 1 13 5 10 8 9 8 4 8-2-1-9-3-3-3-2 1-5 5-6 1-11 1-2 4 2 5 9 5 4 1 17 4 5 6-1 4-5 5-8-2-9-4-6-1-1h-5l-4 3h-4v-13l5-5 10-1v-10l-8-6-3-5v-9l6-8 4-2h7l6 3 4 4 1 3v8l-3 6-4 6h2l3 8h14l4 4 1 2v8l-12 3-1 1v12l4 6 8 4h7l7-4 2-3-1-9-3-5v-2l4-2 6-11 2-2h3l3 7 5 6 4 3-3 9 1 7 2 2h10l10-4 8-8 3-10v-11l-4-9-4-2v12l-4 2h-8l-5-2-4-5-3-9-11-1-6-4-4-6v-6l4-3 10 2 1-7 5-5-1-3-3-1 1-5 7-6h11l7 3 3-1-2-13-7-1-1-4 4-3 7-1-4-7-6-9-1-5 2-3 7-1 9 4 5-9 4-5zm0 6-4 4-2 6-2 8-1 3 1 5-1 1-10-16h-3l1 5 10 14-1 6-1 4v11l-1 3 2 4 7-7h11l6 2-1 6 3-3-1-9 3-10-6-4-3-4 1-6 3-2v-3l-2-1-3-12-5-5zm21 11-7 10v2l4-1 4-5 1-5zm213 17-7 5-4 6v2l4-2 5-4h8l3 2 1-4-5-4zm-473 1-4 4 1 4 14-2-1 5 10 5-4-7-4-2-2-5-3-2zm447 1-3 7-5 4-4 6 1 4 5 2 2 3h2l1-2 2-15 4-4-1-4zm-225 5m35 0 4 3 2-1-2-2zm-234 5 1 7-2 3 1 9 5 12 4 7h3v2h3l3-7 2-7 2-2 3-8-3 1-6 9-2 7v4h-3l-3-28-7-9zm430 1-3 5-2 5-2 10-1 12-2 1-3-13-4-2h-3l1 5 3 4 1 9-6-2-10-7-2-2-4 6-9 5-1 4h14l5-2 3 2v2l-5-1-3 7-1 3h3l1-4 2-1-1 13-3 3-1 7-6-11-9-14-3-7-5-1-1 5 3 6 8 9 9 13 6 16v8l-4 9-1 5 5-5 5-8 1-7-3-7v-8l3-5 3-17 5-8 8-6v-2l4-2 6-12 3-12 5-7h-3l-2 2-1-3zm-27 7-6 5v3h7l3-5v-2zm-375 2-2 5 5 1 3 1v-5l-2-2zm189 2-5 2-5 7-1 14 2 6 3 3h5l3-7 2-12 2-5v-5l-5-3zm-192 3m155-1-5 2-1 7 9-1v3l-11 6-5 5v9l6 2h5l-1 6 2 9 5 4h5l-1-4h-4l1-6 1-1 2-10 6-7-3-1-9 1-7 3-4 1 1-5 5-2 2-1h7l7-2 1-5-3-6-8-7zm70 1-5 2-5 11 2 4 9 2 2-1 8 5 1 3-6-1-7-3-9-1-1 2 8 13 4 10-4-1-3-9-7-2-4 2v1l10 2 1 10 1 1 7-1 3-5v-13l7 1 4-2 1-5-7-9-9-6v-3h6l1-4-4-3zm160 1 1 2zm-151 6m140 0-3 1v2l8 2 5 1-5-5zm-167 4-2 4 4-2zm-198 3-6 2-2 1v2l-4 2-4 4 5 6 2 8-1 7 2 5 1 25 2 6 4 5v-17l2-20 6-8-1-2-9 7v-8l-2-11 2-4 4-2 1 5h4v-2l12 2v5l-9 8-1 7-7 10h3l6-9 4-3v-6l5-4 5-3 1-7-1-2h-7l-12-6-2-3zm195 1m-1 1-2 3v8l2 3 1-2v-12zm-125 1-4 2-3 5 1 7 3 3h6l5-5-1-7-3-4zm220 1-5 5v7l3 4h7l5-5-1-8-3-3zm-289 9m-1 1v3zm-21 6-1 1v20l2 4 3 1 2-2 1-4v-10l-1-7-4-3zm211 0-2 4 3-1zm195 0-4 6-1 8 1 14h3l5-6 1-4v-17zm-225 1v2l9 1 4 1-2-3zm-5 5v4l1-4zm207 3 1 4h2v-4zm-286 1-2 4-1 9-4 1-7-2v3l8 7 4 5 8 20 6 7 8 4 3 1h9l7-3 4-5 4-9v-2l5 4 7 8 5 3h19l8-3 6-8 3-9-4 2-8 7-17 3-8-1-5-5-4-8 3-4-1-7-4-4-4 2 1 6-3 13-4 6-6 4-4 1h-8l-7-3-5-4-4-10v-8l4-6 9-5v-4l-1-1-8 1-10 2-1-12zm266 6-3 4v8l3 1 2-8-1-5zm-321 3 1 11h2l2-4-1-5-1-2zm301 19-4 8-1 12-3 6-4 3-5 1-7-2-4-3-3-8h-2l-3 7-7 7 1 3h7l2-9 1-2 3 9 5 3h11l5-2 4-5 3-1 4 9 5 3 9-1 12-7 7-8 1-4-3-1-7 8-10 6-7 1-5-2-2-3-1-5v-23zm-280 3 1 13v9l5 3 4 4h2v2l-6 1-2 4 7-1 1-1 15-2 4-4 5-13-1-4-2-1-3 9-5 6-4 2h-6l-6-5-2-8v-7l-2-5zm142 5-6 9-6 10h23l-2-5-7-11zm-184 7 1 2zm8 5 1 4 7 8 9 6 7 3 6-1 3-3v-6l-5 2-5 1-8-3-14-11zm233 2-7 6 2 2h9l-1-4zm-112 1-6 4-1 3h12l1-2-5-5zm-46 5-4 4v3l12-1v-3l-4-3zm95 3-34 3-24 1-46 5-25 4-18 4-3 3 1 1h12l64-8 48-4 46-1 50 2 17 1 16 2h7l2-2-2-1h-11l-16-3-7-2-39-3-24-2zm-23 14-46 3-36 5-10 3-1 1v5l-6 2-1 2v10l9 9 1 3-5-1-5-7-2-5-1-7-3-3 2-5h-6l1 4 7 21 6 6 30-3 27-4 45-3-2-5-3-1 1-2 1-18 2-5 9-1h37l6 2 1 2 1 26h-6v1l22 2 23 1 16 2 24 2 25 3 3-8-4 2-1 3-4-1-32-3-38-6v-2h4v-2l-2-2 3-7h8l1-2-13-2-2 4v-6l9-6h27l32 4h5l-4-2-27-4-13-2-50-3zm18 9-1 1v11l1 1h29v-13zm98 3-1 1v12l4 1 13 1h12l1-1 1-11-2-1-19-2zm-64 4v6h1v-6zm119 4-3 4 2 1 3-3v-2zm-5 1-6 6v4h2l5-8zm-290 2-2 2v7l3 5 5 1 1-5-4-8zm319 1-2 9v3l2 2 4-1 3-8-1-4zm-18 3-5 6 3 1 2-4h2l1-3zm-69 1 1 3 2-1zm40 2-1 2 3-1zm41 1m-22 3v3zm-118 1m139 4 2 5 2 1-2-6zm-183 2-24 1-51 6-25 4-13 4v1l27-1 54-6 24-2 28-1h22l46 1-2-3-7-2-37-2zm-121 2 2 5h11v-1h-10l-1-4zm287 2 2 2 9 2h5l-2-2-8-2z" fill="#F9CF87"/>
<path transform="translate(994,837)" d="m0 0h8l29 15 24 11 38 15 37 12 28 7 86 15 3 3-1 47-3 60-5 58-5 30-9 35-11 36-12 31-14 29-8 13-13 22-7 10-13 18-10 13-12 14-11 12-16 16-11 9-12 11-11 9-10 8-11 8-21 13-16 8-7 3-5-1-16-8-21-13-11-8-16-13-28-24-15-14-12-12-9-11-7-8-14-19-10-14-13-21-13-22-8-16-9-21-9-24-12-39-8-32-4-23-4-41-3-43-2-50v-38l7-2 37-6 45-8 24-6 44-14 27-11 12-5 15-7 23-11zm3 24-26 13-41 18-24 9-25 8-24 6-40 8-46 8-2 1v28l2 51 4 55 4 32 5 25 11 41 13 36 12 26 12 22 11 18 14 20 14 19 12 14 9 9 7 8 15 14 10 8 14 12 16 13 25 15 15 8 5 1 21-10 21-13 14-11 14-12 10-8 20-18 6-7 14-14 11-14 12-16 15-22 14-24 12-23 13-32 7-21 9-34 7-36 4-34 3-46 2-60v-20l-25-5-54-10-34-8-36-12-30-13-26-12-19-9-3-2z" fill="#0A0907"/>
<path transform="translate(1201,433)" d="m0 0 7 1 5 5 4 2 10-6h9l6 3 5 7 1 7-3 5-5 4h-5l-4-5-1-2-6 2-3 4-5 16-7 14-1 27-4 11-6 9-5 4-6 15-7 11-12 12-1 2 10 2 5 3 1 7-3 4-5 2-28-3-29-5-34-5-46-3 5-4h10l4-1 6 2v-2h17l16 2h7v-1h-11l-16-3-7-2-39-3-24-2-15-1v-3l2-1h16l-1-5 4 1 8 3h17l7-3 8-8h3l2 5 9 8 5 2h8l10-3 8-7 4-9 4-12 4-5 6-5 2-5-4 1-4 2-2-1-1-14-8-7-3-6v-11l4-5 6-3 9 1 6 5 2 4v9l-7 8-3 4 2 8 10 3 3 3 1 3v10l-8-1-4-1-5 5-1 3v9l4 10 4 3 6-1 3-4 1-16 6-7h2l2-8h4l4 14 3 5-2 5-3 4-1 4 2 5 1 1 9-1 6-4 7-9 3-5 2-15-3-9-5-3-2 10-4 7-4-1-7-7-1-7 2-6 3-5 5-2-4-7-5-10-1-8 4-2 13 3 2-5 7-6 2-1-2-4v-6l5-6 6-3 7-2 9-9-1-8zm30 5-7 5-4 6v2l4-2 5-4h8l3 2 1-4-5-4zm-26 2-3 7-5 4-4 6 1 4 5 2 2 3h2l1-2 2-15 4-4-1-4zm6 11-3 5-2 5-2 10-1 12-2 1-3-13-4-2h-3l1 5 3 4 1 9-6-2-10-7-2-2-4 6-9 5-1 4h14l5-2 3 2v2l-5-1-3 7-1 3h3l1-4 2-1-1 13-3 3-1 7-6-11-9-14-3-7-5-1-1 5 3 6 8 9 9 13 6 16v8l-4 9-1 5 5-5 5-8 1-7-3-7v-8l3-5 3-17 5-8 8-6v-2l4-2 6-12 3-12 5-7h-3l-2 2-1-3zm-27 7-6 5v3h7l3-5v-2zm7 8 1 2zm-11 6-3 1v2l8 2 5 1-5-5zm-76 11-5 5v7l3 4h7l5-5-1-8-3-3zm95 16-4 6-1 8 1 14h3l5-6 1-4v-17zm-23 9 1 4h2v-4zm-20 7-3 4v8l3 1 2-8-1-5zm-20 22-4 8-1 12-3 6-4 3-5 1-7-2-4-3-3-8h-2l-3 7-7 7 1 3h7l2-9 1-2 3 9 5 3h11l5-2 4-5 3-1 4 9 5 3 9-1 12-7 7-8 1-4-3-1-7 8-10 6-7 1-5-2-2-3-1-5v-23zm-81 22-7 6 2 2h9l-1-4z" fill="#F9CF84"/>
<path transform="translate(723,1595)" d="m0 0h40l4 9 14 36 11 29 15 39 1 2 4-9 11-27 15-40 12-29 4-10h40l1 4-1 1-16 2-4 2-1 4v117l16 1 6 2-1 5h-58l-1-5 1-2 20-1v-114l-1-4-13 32-13 34-12 31-11 26-4 4-5-8-13-35-16-41-8-21-8-19-1-2v111l1 3 18 5 2 5-1 1h-47l-1-5 4-2 12-3 4-3 1-117-20-3z" fill="#E6C395"/>
<path transform="translate(1064,588)" d="m0 0h27l37 5 14 3 27 3 5 2 2 2 1 6-4 13-6 9 1 4 3 5-1 7-2 3-13-1-43-6-37-4-20-2-30-1h-43l-30 1-43 4-32 4-4-1 2-3-2-2 1-1 33-3 35-4 24-2 28-1h22l45 1-8-3-24-2-4-1 1-3 4-2h14l23 1 16 2 24 2 25 3 2-6-4 4-36-3-19-3-17-3-2-1v-2l4-2-3-1 2-7 3-2h7l-11-2-4 4v-7zm21 6-1 1v12l4 1 13 1h12l1-1 1-11-2-1-19-2zm55 8-3 4 2 1 3-3v-2zm-5 1-6 6v4h2l5-8zm29 3-2 9v3l2 2 4-1 3-8-1-4zm-18 3-5 6 3 1 2-4h2l1-3zm-69 1 1 3 2-1zm40 2-1 2 3-1zm41 1m-22 3v3zm21 5 2 5 2 1-2-6zm-17 6 2 2 9 2h5l-2-2-8-2z" fill="#F9CE83"/>
<path transform="translate(958,1594)" d="m0 0h20l15 1 13 4 9 6 10 9 7 8 8 16 3 12v29l-4 15-6 11-12 14-10 7-11 5-11 2h-81v-6l1-1 20-1-1-121-5-2-13-1-2-1v-5zm-9 7-3 2v123h41l10-3 9-6 9-10 5-12 3-17v-28l-3-18-4-9-6-8-9-8-8-4-8-2z" fill="#E5C192"/>
<path transform="translate(997,404)" d="m0 0 4 1 5 6 4 8 5-3h9l3 2-1 7-4 7-5 5v2l8 2 3 3v3l-6 2-4 12-1 5 11-6 7-1 5 2 5 5 1 5-4 3 8 10 3 3 7-1 3 3-1 6-7 8-6 2h-8l-1 8-4 6-7 2h-7l-5-1v-4h2l-1-8h-4l-2 1v-5h-12l-3-2 1-3h-4l-1 2h-2l-1 3-3 1-2-3-11-1-1 2 3 1 2 11v4l-4 2h-8l-5-2-4-5-3-9-11-1-6-4-4-6v-6l4-3 10 2 1-7 5-5-1-3-3-1 1-5 7-6h11l7 3 3-1-2-13-7-1-1-4 4-3 7-1-4-7-6-9-1-5 2-3 7-1 9 4 5-9 4-5zm0 6-4 4-2 6-2 8-1 3 1 5-1 1-10-16h-3l1 5 10 14-1 6-1 4v11l-1 3 2 4 7-7h11l6 2-1 6 3-3-1-9 3-10-6-4-3-4 1-6 3-2v-3l-2-1-3-12-5-5zm21 11-7 10v2l4-1 4-5 1-5zm-38 24m35 0 4 3 2-1-2-2zm-17 17-5 2-5 7-1 14 2 6 3 3h5l3-7 2-12 2-5v-5l-5-3zm-37 2-5 2-1 7 9-1v3l-11 6-5 5v9l6 2h5l-1 6 2 9 5 4h5l-1-4h-4l1-6 1-1 2-10 6-7-3-1-9 1-7 3-4 1 1-5 5-2 2-1h7l7-2 1-5-3-6-8-7zm70 1-5 2-5 11 2 4 9 2 2-1 8 5 1 3-6-1-7-3-9-1-1 2 8 13 4 10-4-1-3-9-7-2-4 2v1l10 2 1 10 1 1 7-1 3-5v-13l7 1 4-2 1-5-7-9-9-6v-3h6l1-4-4-3zm9 7m-27 4-2 4 4-2zm-3 4m-1 1-2 3v8l2 3 1-2v-12zm-5 18-2 4 3-1zm-35 6v4l1-4z" fill="#FACF84"/>
<path transform="translate(1063,1594)" d="m0 0h59l1 4-4 2-14 2-4 1v87l2 15 4 10 6 7 10 6 5 2h12l11-4 11-8 6-9 3-11 1-26v-55l-1-10-5-4-13-4-2-4h50l-1 4-12 3-6 4-1 2-1 17-1 71-3 11-6 12-8 9-10 6-5 2-6 1h-17l-13-4-11-7-7-8-6-10-3-8-1-7-1-89-3-2-15-2-3-2v-3z" fill="#E5C293"/>
<path transform="translate(1201,433)" d="m0 0 7 1 9 9-1 1h-5l-1 6v3l-3 8-2 10-1 12-3 1-3-7-2-7-5-1 3 6 2 3 1 9-3 1-14-9-2-1-4 5-7 4h-2l-1 4 10-1 6-1h4l3 2-1 3-5-2-1 5-3 5h3l1-5h2l1 7-2 7-2 2-1 9-3-4-8-14-6-9-2-7h-5l1 6 3 5 7 8 9 13 6 16v8l-4 9-2 8-3-1v-4l-2-1-2 4-9 8-10 4-7-1-4-5-1-5v-15l1-8-3 3-2 5-1 12-3 6-5 4-5 1-7-2-5-4-2-5v-3h-2v-2l-3 1 2-9 4-10 9-8 2-5-4 1-4 2-2-1-1-14-8-7-3-6v-11l4-5 6-3 9 1 6 5 2 4v9l-7 8-3 4 2 8 10 3 3 3 1 3v10l-8-1-4-1-5 5-1 3v9l4 10 4 3 6-1 3-4 1-16 6-7h2l2-8h4l4 14 3 5-2 5-3 4-1 4 2 5 1 1 9-1 6-4 7-9 3-5 2-15-3-9-5-3-2 10-4 7-4-1-7-7-1-7 2-6 3-5 5-2-4-7-5-10-1-8 4-2 13 3 2-5 7-6 2-1-2-4v-6l5-6 6-3 7-2 9-9-1-8zm4 7-3 7-5 4-4 6 1 4 5 2 2 3h2l1-2 2-15 4-4-1-4zm-21 18-6 5v3h7l3-5v-2zm7 8 1 2zm-11 6-3 1v2l8 2 5 1-5-5zm-76 11-5 5v7l3 4h7l5-5-1-8-3-3zm72 25 1 4h2v-4zm-20 7-3 4v8l3 1 2-8-1-5z" fill="#E7C597"/>
<path transform="translate(876,1440)" d="m0 0 13 1 11 4 9 8 8 15 2 6 1 12 22 7 17 4 3 2-1 6-4 2-31-11-8-3h-3l-7 8-6 5-9 3-5 1h-14l-13-4-5-5 4-6 10-10 11-6 7-1-8-10-5-12-1-5v-8z" fill="#050404"/>
<path transform="translate(1114,1440)" d="m0 0 7 1v12l-3 10-6 10-3 2-1 3 7 1 9 5 10 9 5 6-1 5-12 5-5 1h-14l-11-3-9-6-6-8-7 1-33 12h-6l-2-5 2-3 25-7 15-5h2l-1-2v-7l5-14 6-10 9-8 10-4z" fill="#050403"/>
<path transform="translate(1213,1594)" d="m0 0h61l2 4-4 2-15 2-4 2-1 32v89l17 1 6 1 1 5-1 1h-62l-1-5 4-2 18-1v-118l-1-4-5-2-12-1-4-2z" fill="#E5C294"/>
<path transform="translate(636,1226)" d="m0 0 4 1 8 13 2 7v13l-3 10-9 14-5 4-8 3h-12l-10-3-9-6-7-7-7-12-2-6v-6l4-2h12l12 3 11 7 2 1v-9l8-16z" fill="#070605"/>
<path transform="translate(731,1360)" d="m0 0h5l10 7 6 7 6 13 1 6v12l-3 10-7 8-7 5-15 3-14-2-11-6-10-9-2-4 1-5 7-4 8-2 14-1 9 1-3-8-1-12 2-11z" fill="#070705"/>
<path transform="translate(1357,1226)" d="m0 0 6 3 7 8 6 12 1 4v7l13-8 12-3h12l4 2-2 12-7 12-11 10-8 4-8 2h-11l-10-4-8-9-6-13-1-4v-16l4-10z" fill="#070605"/>
<path transform="translate(1260,1360)" d="m0 0h5l4 10 1 4v14l-2 11 15-1 14 3 8 4 1 5-6 8-11 8-11 4h-17l-11-4-8-7-4-8-1-5v-15l3-10 6-10 7-7z" fill="#080706"/>
<path transform="translate(570,939)" d="m0 0h5l11 10 6 11 2 10 7-4 11-7 3-1h16l1 1v11l-3 9-5 8-13 10-11 4-5 1h-7l-10-4-8-8-5-8-3-11v-13l4-14z" fill="#070605"/>
<path transform="translate(1320,777)" d="m0 0 5 1 8 6 7 8 4 10 1 4v15l-3 10-5 7-9 6-11 2h-10l-10-2-11-7-6-5-4-8 1-4 8-5 10-2h8l11 2-2-9v-9l3-13 4-6z" fill="#090806"/>
<path transform="translate(692,1320)" d="m0 0 7 1 7 7 7 14 1 5v14l-3 10-6 9-5 4-8 3h-20l-10-4-10-8-9-14 2-4 10-3h19l10 3-2-9 1-12 4-11z" fill="#070605"/>
<path transform="translate(672,777)" d="m0 0 5 1 5 10 1 5v17l-1 5 12-2 13 1 10 5 3 5-6 10-10 7-10 4-7 1h-9l-10-2-9-6-4-5-4-10-1-14 5-16 11-12z" fill="#070605"/>
<path transform="translate(1329,1278)" d="m0 0 6 1 7 8 4 11v14l9-2 15-3 14 2 3 2-1 6-3 6-8 10-9 7-8 3-5 1h-13l-10-3-5-4-7-14-2-5-1-6v-8l3-10 6-11z" fill="#070604"/>
<path transform="translate(618,1172)" d="m0 0 5 1 4 9 1 4v18l-4 10-8 11-9 7-8 2-12-1-10-5-10-9-5-8-4-12v-11l7-1 12 3 12 6 4 5 3 1 2-9 6-9 7-8z" fill="#060504"/>
<path transform="translate(1298,1320)" d="m0 0h6l6 7 3 11v13l-1 6 11-3h17l11 3 2 3-4 8-7 9-11 7-8 3h-20l-10-5-6-7-5-11v-19l4-11 8-11z" fill="#060504"/>
<path transform="translate(1422,938)" d="m0 0 4 2 5 8 3 14-1 12-4 11-8 10-7 5-6 2h-8l-13-4-9-6-8-7-5-11-1-3v-12l1-1h14l9 3 11 8 3 2v-7l6-12 9-10z" fill="#060504"/>
<path transform="translate(662,1278)" d="m0 0h5l6 7 6 12 1 4v15l-5 14-6 9-9 4-5 1h-13l-11-3-10-8-9-11-3-7 1-5 11-3 12 1 14 4 2 1 1-16 5-12 4-5z" fill="#060504"/>
<path transform="translate(1395,877)" d="m0 0 5 2 7 11 3 8 1 5v11l-3 11-8 11-6 5-4 2h-19l-12-5-11-9-5-9-2-5v-7l5-3 10-1 12 3 9 5h2l1-9 6-15 6-9z" fill="#060604"/>
<path transform="translate(598,877)" d="m0 0 5 2 5 6 7 15 2 12 6-2 8-4 8-2 11 1 5 3-1 10-5 9-5 5-9 7-12 4h-17l-8-4-8-10-4-9-1-5v-13l2-9 7-12z" fill="#050403"/>
<path transform="translate(1374,1172)" d="m0 0 6 1 9 7 7 10 4 11 3 1 2-4 5-4 11-5 13-2 4 2v8l-4 13-5 8-4 5-10 7-8 3-10 1-8-2-8-6-7-8-5-10-2-11 1-13 3-9z" fill="#070604"/>
<path transform="translate(547,1062)" d="m0 0 7 1 8 4 9 8 6 10v2l4-4 6-8 9-7 8-3h7l2 6 1 8-3 13-7 12-9 9-10 4-10 1-13-4-7-6-8-13-3-7-1-6v-8l2-10z" fill="#060504"/>
<path transform="translate(1213,698)" d="m0 0 11 3 10 5 9 10 4 8 2 7v14l-3 9-4 5-12 7-12 3h-12l-10-3-11-8-2-4 7-7 10-6 9-3 9 1-6-15-2-8v-10l2-7z" fill="#060504"/>
<path transform="translate(779,698)" d="m0 0 5 1 1 4v16l-4 12-4 8 2-1h8l11 4 10 7 4 4-1 5-10 7-7 3-5 1h-11l-10-2-14-8-5-6-3-12 1-12 4-10 7-9 7-6z" fill="#060604"/>
<path transform="translate(1446,1061)" d="m0 0 4 2 2 6v18l-4 10-7 10-8 7-8 3-9 1-12-3-8-7-7-8-5-11-2-8v-7l3-9 2-1 13 4 10 8 7 10 2-1 4-7 9-10z" fill="#050504"/>
<path transform="translate(822,1420)" d="m0 0 10 1 10 5 10 9 5 10 2 7v17l-3 6-6 7-8 5-12 4h-12l-10-3-8-4-6-5 1-4 8-8 11-5 7-2h9l-3-5-4-7-3-10v-12z" fill="#050403"/>
<path transform="translate(1167,1420)" d="m0 0h7l1 1v20l-4 11-4 5h-2v2l13 2 11 4 11 9 2 4-8 7-12 5-4 1h-13l-11-4-8-5-7-8-3-9v-8l3-13 5-9 7-7 7-5z" fill="#050504"/>
<path transform="translate(1269,733)" d="m0 0 7 1 10 7 7 8 6 13 2 10-2 11-5 9-7 7-12 4h-20l-10-4-10-8-3-4 2-5 10-6 7-3h16l2 1-4-17v-11l3-12z" fill="#070605"/>
<path transform="translate(723,732)" d="m0 0 4 1 3 9 1 10-2 14-3 8 2-1h16l14 6 5 4-1 6-7 7-8 5-7 2h-20l-11-4-7-6-6-12-1-12 3-10 6-12 7-7z" fill="#070706"/>
<path transform="translate(777,1396)" d="m0 0h7l10 5 7 7 6 12 2 8v15l-4 10-7 7-9 4-15 2-13-2-10-5-5-5v-2h-2l-1-5 7-6 10-5 9-2h8l3 1-6-15-1-4v-10z" fill="#060504"/>
<path transform="translate(635,821)" d="m0 0 4 2 7 15 2 9v12l13-4h14l9 3 3 2-3 9-6 8-8 6-11 5-4 1h-17l-7-3-7-6-5-8-3-12 1-14 3-9 10-13z" fill="#070605"/>
<path transform="translate(1359,822)" d="m0 0 5 1 9 10 5 10 1 4v18l-4 10-9 10-8 4-9 1-13-2-12-6-10-9-5-10 1-4 6-3 4-1h17l11 4v-15l5-14 4-7z" fill="#050504"/>
<path transform="translate(1383,1123)" d="m0 0 8 1 9 5 8 10 4 8v2l4-4 6-7 12-8 12-2 2 2 1 11-4 16-7 11-8 6-11 5-8 1-9-2-11-8-4-5-8-16-1-5v-8l3-11z" fill="#060504"/>
<path transform="translate(609,1122)" d="m0 0 4 1 4 9v16l-4 10-6 9-9 8-7 4-9 1-8-2-10-5-8-7-5-9-3-9-1-5v-9l2-6 8 1 9 4 10 7 4 5 3 3 6-11 8-9z" fill="#050403"/>
<path transform="translate(1438,995)" d="m0 0 4 2 4 13v16l-4 12-7 9-6 5-8 3h-14l-12-5-8-7-7-10-3-8-1-11 2-6 13 1 7 3 16 12 4-9 3-6 8-8z" fill="#060504"/>
<path transform="translate(554,996)" d="m0 0 7 1 11 9 4 5 5 11v3l14-11 6-4 8-2h8l2 1v16l-4 10-10 12-8 5-9 3h-14l-10-5-8-8-5-10-1-5v-19l3-10z" fill="#040403"/>
<path transform="translate(1215,1395)" d="m0 0 4 1 3 8 1 7-3 14-4 10 3-1 13 1 10 4 10 7 1 2-3 5-9 8-8 3-11 2-16-2-9-5-8-9-3-10v-8l4-15 5-9 4-5 10-6z" fill="#060504"/>
<path transform="translate(790,433)" d="m0 0h6l1 3-1 8 10 7 8 3 6 5 3 9-2 4-6 1-5 1 5 1 9-1 5 4 3 5 10-1 5-2 1 1-1 11-5 10-3 3v2l5 5-2 5-4-4v-3l-2-1v2h-3l-2-3-2 2-1-6 6-5 4-2 1-9-7 1-12-6-2-4-11 3v2l-7 5 5 7 2 8-1 7 1 9-2-2-2 3-2 4-2 2-3-1 3-7v-10l-1-7-5-2v20l1 4-5 1-2-7v-30h-2l-6-13-4-14-8-8-5 7-6 1-6-4-2-3v-7l5-8 6-4 6-1 8 3 8 4 3 1 7 12 1 4-1 6 5-1 5-4-2-5-5-4-6-3-1-6h-4l2-5zm-32 6-4 4 1 4 14-2-1 5 10 5-4-7-4-2-2-5-3-2zm23 11 1 7-2 3 1 9 5 12 4 7h3v2h3l3-7 2-7 2-2 3-8-3 1-6 9-2 7v4h-3l-3-28-7-9zm28 10-2 5 5 1 3 1v-5l-2-2z" fill="#F8D290"/>
<path transform="translate(882,477)" d="m0 0h7l6 3 4 4 1 3v8l-3 6-4 6h2l3 8h14l4 4 1 2v8l-12 3-1 1v12l4 6 8 4h7l7-4 2-3 1-8h5l-1-12 2 3 1 4-3 13-4 6-7 5-4 1h-8l-7-3-6-5-4-10v-8l4-6 6-4 4-2-1-3-8 1-8 2-3-3-1-8-1 2-1 9-2 2-10-2 3 3v2l4 2 6 7 7 18-1 4-2-1-1 4-3 1 2-10-1-1-3 8-6 7-4 2h-6l-7-6-2-8v-7l-1-4-4-2 1 12v9l5 3-4 1-2 1-1 5-1-4-8 4-8-2-8-6-2-6h4l6 5 6 3 8-2-1-9-3-3-3-2 1-5 5-6 1-11 1-2 4 2 5 9 5 4 1 17 4 5 6-1 4-5 5-8-2-9-4-6-1-1h-5l-4 3h-4v-13l5-5 10-1v-10l-8-6-3-5v-9l6-8zm2 5-4 2-3 5 1 7 3 3h6l5-5-1-7-3-4z" fill="#F7D08D"/>
<path transform="translate(840,688)" d="m0 0 12 1 10 4 5 4-1 5-7 14-7 8-10 5-6 2h-17l-11-4-3-3 1-6 4-9 7-8 8-7 11-5z" fill="#050403"/>
<path transform="translate(1150,688)" d="m0 0 9 1 12 5 10 9 7 10 3 9-2 4-9 4-3 1h-18l-12-5-8-7-8-13-2-5 1-5 8-5z" fill="#050403"/>
<path transform="translate(1006,1028)" d="m0 0 12 2 6 3 9 8 6 10 1 4v12l-3 8-12-2-3-1v-9l-4-3v-6h2l-5-5-5-2-8 1-7 4-3 7v3l3 2v3l-5 2-2 5-4 6-4 2-4-10-1-7v-10l4-11 7-8 8-5 5-2z" fill="#0A0908"/>
<path transform="translate(1105,477)" d="m0 0 9 1 6 5 2 4v9l-7 8-3 4 2 8 10 3 3 3 1 3v10l-8-1-4-1-5 5-1 3v9l4 10 4 3 6-1 3-4 1-16 6-7h2l2-8h4l4 14 3 5-2 5-3 4-1 4 2 5 1 1 9-1 6-4 7-9 7 4 1 4-2 2-2-1v-4l-2-1-2 4-9 8-10 4-7-1-4-5-1-5v-15l1-8-3 3-2 5-1 12-3 6-5 4-5 1-7-2-5-4-2-5v-3h-2v-2l-3 1 2-9 4-10 9-8 2-5-4 1-4 2-2-1-1-14-8-7-3-6v-11l4-5zm-1 6-5 5v7l3 4h7l5-5-1-8-3-3z" fill="#E7C79D"/>
<path transform="translate(1246,1812)" d="m0 0h39l4 4 9 14 13 18 4 6 1-31-1-6-6-3v-2h16l2 2-7 2-1 54-3-1-8-12-8-11-12-17-7-10-1-1 1 47 8 2v3h-19l1-3 6-1v-48l-1-3h-17l-3 1-1 51 10 1v2h-27l-1-2 10-1v-52h-8l-2-2z" fill="#312E2A"/>
<path transform="translate(1032,459)" d="m0 0 7 1 5 5 2 3-1 4-3 2 8 10 3 3 7-1 3 3-1 6-7 8-6 2h-8l-1 8-4 6-3 1-4-1v-2l5-3 1-5 1-13h7l3-1 1-5-6-8-10-7-1-3 3-1h5l-1-4-6-1-5 1-3 9-1 4 3 2 7 1 2-1 9 6v3l-4 1-5-3-13-2 3 6 6 10 2 8-4-1-3-9-10-1v-2l2-1h-7l-1-4v-11l-4 4-4-1-1-5 2-7h5l3-7 3-2h3v2l5-2 7-4zm8 13m-27 4-2 4 4-2z" fill="#FACE81"/>
<path transform="translate(1064,588)" d="m0 0h27l22 3 4 3-2 1v2l-21-2h-9l-1 12 15 1-2 1v2h-4v2h5l-2 2-4 1 4 2h11l8-2 2 4 14 1-1 3-36-3-19-3-17-3-2-1v-2l4-2-3-1 2-7 3-2h7l-11-2-4 4v-7zm13 22 1 3 2-1z" fill="#FACE81"/>
<path transform="translate(917,588)" d="m0 0h6l8 5 2 15v8l-6 2-34 3-12 1-2-6-1-21 8-3 27-3zm-8 6-18 2-1 2v7l1 4h13l13-1 4-2-1-11-1-1zm-23 19 1 2z" fill="#F9CE84"/>
<path transform="translate(279,1812)" d="m0 0h11l4 9 12 31 3 7 4-9 11-28 4-9 1-1 17 1-3 2-6 1v50l9 2 1 2h-27l3-3h6v-48l-2 2-7 19-8 20-4 9h-3l-8-22-11-28-3-3 1 16v33l8 2 1 3h-20v-2l7-3 1-49-8-2v-1z" fill="#262320"/>
<path transform="translate(1145,1812)" d="m0 0h24l1 2-9 1-1 30 16-14 12-12-2-7h16l1 2-10 4-16 16 2 5 11 15 6 10 8 5v1h-22v-2l5-1-1-5-9-13-5-7v-2l-5 3-6 7v14l1 2 8 2v2h-26v-2l2-1h6l1-52-9-1z" fill="#29241E"/>
<path transform="translate(1336,1812)" d="m0 0h31l9 2 7 5 6 11 1 4v14l-3 9-7 8-8 4-5 1h-34v-2l2-1h7v-49l-1-2-8-2zm14 3-1 1v50l1 1h17l8-4 5-6 2-7v-18l-4-10-7-6-3-1z" fill="#37322D"/>
<path transform="translate(561,1812)" d="m0 0h27l10 2 5 5 6 9 2 6v14l-3 9-7 8-8 4-6 1h-33l1-3 7-1 1-3v-48h-8l-1-2zm11 3-1 1v51h17l7-3 6-7 3-10v-10l-2-9-6-10-5-3z" fill="#292520"/>
<path transform="translate(1424,1810)" d="m0 0h8l10 3 7 6 6 11 1 4v16l-5 10-8 8-6 3-4 1h-9l-10-4-7-6-5-8-2-9v-8l3-10 6-9 8-6zm2 2-8 4-6 7-3 9v18l3 8 7 8 6 3h7l7-3 5-6 3-8v-23l-5-10-6-5-5-2z" fill="#312E2A"/>
<path transform="translate(624,1812)" d="m0 0h44l2 12v7l-2-3-5-10-3-2h-23l-1 22h8l8-2 1-6h2v21l-2-1-1-7-5-1h-10v24h23l6-4 2-4 2-10h1v12l-2 9-2 1h-47l1-3 6-1 1-51h-7l-1-2z" fill="#110F0C"/>
<path transform="translate(1201,433)" d="m0 0 7 1 9 9-1 1h-5l-1 6v3l-3 8-2 10-1 12-3 1-3-7-2-7-5-1 3 6 2 3 1 9-3 1-14-9-2-1-3 3v-2h-2v-2l-4-1 6-4-2-4v-6l5-6 6-3 7-2 9-9-1-8zm4 7-3 7-5 4-4 6 1 4 5 2 2 3h2l1-2 2-15 4-4-1-4zm-21 18-6 5v3h7l3-5v-2zm7 8 1 2zm-11 6-3 1v2l8 2 5 1-5-5z" fill="#E9CAA2"/>
<path transform="translate(1531,1812)" d="m0 0h44l2 5 2 14h-2l-5-13v-2h-27l-1 22 15-1 3-7h1l1 12-1 8-2-1-2-6-1-1-14-1v26l25-1 5-4 5-14h1v10l-3 11-2 1h-46v-3l7-1v-50l-7-1-1-2z" fill="#292827"/>
<path transform="translate(1101,508)" d="m0 0 3 1-1 8-3 5-5-1-6-2h-7l1 4 6 2 6 4 2 4v11l-4 8-9 7-3 1h-12l-9-4-3-3-2-7v-18h-4l-2 3v17l-2 1-1-10-5-3-1-3 5-3 6-8 2-5 4 2 7 11 3 2-1 5-3 6 1 6 3 3 9 3 7-1 6-5 3-7v-7l-2-3-10-2-1-1v-9l2-4 2-1h12l4 1 1-7z" fill="#FAD28C"/>
<path transform="translate(801,1812)" d="m0 0h14l4 4 24 36 2 2v-37l-8-3v-2h15l5 1v2l-8 1v52h-4l-19-28-11-16-3-4-1 36 1 9 7 3 1 2-18 1-2-2 3-3 3-1 1-2v-47l-7-2z" fill="#1F1D19"/>
<path transform="translate(957,1812)" d="m0 0h15l9 14 12 17 8 11v-37l-8-3v-2h18l1 3-6 1-1 53-4-1-13-19-9-13-11-17v46l7 3-1 3-18-1-1-2 9-3v-49l-9-2z" fill="#22201C"/>
<path transform="translate(680,1812)" d="m0 0h30l10 2 6 7 1 2v9l-5 7-5 3-4 1-19 1v23l9 1v2h-25v-2l7-1v-52l-8-1zm14 3-1 3v20l1 3h18l5-5 2-7-1-8-3-5-2-1z" fill="#2E2B27"/>
<path transform="translate(1465,1812)" d="m0 0h15l7 9 12 17 11 16v2h2l-1-2-1-37-6-3 1-2h14l2 2-6 3-1 52-4-2-8-11-8-12-16-23-1-3h-2v48l9 2v2h-19l1-3 5-2 1-7 1-43-8-1z" fill="#22201C"/>
<path transform="translate(1599,1809)" d="m0 0h11l5 2h9v19l-2 1-5-13-4-5-3-1h-10l-4 4-1 3v9l4 4 15 4 8 6 4 6v9l-4 8-7 6h-13l-8-4-3 4-3-1v-19h2l5 12 4 3 3 1h12l4-4 1-3v-8l-4-6-18-5-6-5-3-7 1-10 6-8z" fill="#292723"/>
<path transform="translate(763,434)" d="m0 0 8 2 10 5 3 1 7 12 1 4-1 6 2 2h-2l-1 2-3-11-5-5 1 5-2 3 1 9 5 12 2 6-2 3v-2h-2l-6-13-4-14-8-8-5 7-6 1-6-4-2-3v-7l5-8 6-4zm-5 5-4 4 1 4 14-2-1 5 10 5-4-7-4-2-2-5-3-2z" fill="#EBD0AD"/>
<path transform="translate(429,1809)" d="m0 0h10l9 3 4-2 1 1v18h-3l-5-13-5-4h-11l-4 4-1 2v11l4 3 15 4 8 6 4 6v9l-4 8-7 6h-14l-9-5-1 5h-3l-1-19h3l4 10 5 4 3 1h12l4-5 1-2v-8l-3-5-9-3-10-3-7-6-2-4v-10l5-8z" fill="#282420"/>
<path transform="translate(379,1809)" d="m0 0 3 1 16 44 3 12 9 3v1h-25v-2l7-2-2-10-1-4h-22l-2 7v6l4 2 1 3h-18v-2l6-3 5-10 8-25zm-2 13-7 19-1 7 16 1 2-1-3-10-5-15z" fill="#151412"/>
<path transform="translate(854,526)" d="m0 0 4 2 5 9 5 4 1 17 4 5 6-1 4-5 5-8-2-10 3-3 7 18-1 4-2-1-1 4-3 1 2-10-1-1-3 8-6 7-4 2h-6l-7-6-2-8v-7l-1-4-4-2 1 12v9l5 3-4 1-2 1-1 5-1-4-8 4-8-2-8-6-2-6h4l6 5 6 3 8-2-1-9-3-3-3-2 1-5 5-6 1-11z" fill="#E9CAA0"/>
<path transform="translate(763,1809)" d="m0 0 4 2 13 37 5 16 1 2 8 3-1 2-23-1v-2l7-3-3-11-3-2h-19l-3 6-1 7 6 3v2h-18l1-3 6-3 8-21 9-27zm-2 13-8 23v3l16 1 2-1-2-9-5-15z" fill="#211E1B"/>
<path transform="translate(1021,1812)" d="m0 0h52l1 2 1 17-2-2-2-8-2-4-11-2h-7v52l12 1 1 2h-33l-1-2 5-1h8l-1-51h-17l-2 6-1 8-2 1v-16z" fill="#100F0D"/>
<path transform="translate(1693,1809)" d="m0 0 3 2 13 40 5 13v2l9 2v2l-7 1-16-1 1-3 3-1-1-10-2-4h-20l-3 9 1 4 3 3v2h-17l1-3 7-4 12-35 5-14zm-3 14-7 18-1 7 7 1h11l-1-6-6-17z" fill="#181612"/>
<path transform="translate(1105,477)" d="m0 0 9 1 6 5 2 4v9l-7 8-3 4 2 8 10 3 3 3 1 3v10l-8-1-4-1-6 4 1-7 6-7v-2l-4 1-4 2-2-1-1-14-8-7-3-6v-11l4-5zm-1 6-5 5v7l3 4h7l5-5-1-8-3-3z" fill="#F9D08B"/>
<path transform="translate(899,1812)" d="m0 0 16 1-1 2-5 1v41l3 7 5 3h11l6-7 3-9v-35l-7-2v-2h17v3l-6 1v38l-5 10-5 5-3 2h-13l-7-4-6-7-2-6v-39h-7l-2-2z" fill="#1C1A18"/>
<path transform="translate(490,1809)" d="m0 0 4 2 14 41 5 14 8 3v1h-23l-1-2 6-1-2-10-2-5-21-1-2 7v7l5 5-16 1v-4l6-4 13-37zm-1 13-7 18-2 8 10 1 9-1-3-10-6-16z" fill="#1B1815"/>
<path transform="translate(1115,592)" d="m0 0h8l13 3 2 4h-2v2l-4 1-2 7-1 4h2l2-6h4v4l-2 8-3 2h-16v-2l-2-1h-1l-11 1h-6l-5-3 4-2-2-1v-2h4v-2l4-1h12l2-13h-5v-1l5-1zm2 20-1 2 3-1z" fill="#FACE80"/>
<path transform="translate(1e3 407)" d="m0 0 4 1 6 11 5-3h9l3 2-1 7-4 7-5 5v2l8 2 3 3v3l-6 2-4 12-1 5-1-2-5 2-2-4 1-8 2-6-8-7-1-6 4-4 1-3-3-1-3-12-6-6zm18 14-7 10v2l4-1 4-5 1-5zm-3 24 4 3 2-1-2-2z" fill="#E6C499"/>
<path transform="translate(1082,1812)" d="m0 0h14l9 1-1 2-6 1-1 7v30l3 10 6 4h11l6-5 3-7 1-6v-33l-5-1-3-1v-2h15l4 2-7 3v26l-1 12-4 9-7 6-2 1h-13l-8-5-5-7-2-7-1-36-7-2z" fill="#39342D"/>
<path transform="translate(1038,1079)" d="m0 0 10 3 16 5 5 4 9 2-4 3-7 3-11 2-14 3h-2l2 18-2 12-2-2v-13l-1-12-1-3-11-7-5-3 3-2 5-3zm17 10-12 5-12 2 4 4 8 1 13-3 4-2v-4h-2l-1-3z" fill="#151311"/>
<path transform="translate(997,404)" d="m0 0 4 1 1 2-5 3-4 6-3 12-1 3 1 5-2 2-9-14-3-3 1 5 10 14-1 6-1 4v11l-1 5h-7l-2-2 3-2-2-13-7-1-1-4 4-3 7-1-4-7-6-9-1-5 2-3 7-1 9 4 5-9 4-5z" fill="#E8C9A0"/>
<path transform="translate(790,433)" d="m0 0h6l1 3-1 8 10 7 8 3 6 5 3 9-1 3-2-1v-6h-3l-2 3-2-6-4-1-2 5-5 5-4 6-3 11h-3l-2-8v-11l3-3 8-6-2-5-5-4-6-3-1-6h-4l2-5z" fill="#F7D293"/>
<path transform="translate(989,604)" d="m0 0h17l1 4-3 1 11 1 6 4 1 2 7 1 2 3-5 1-1 2 4 1-50-1-3-2 9-1 5-1-2-5-2-4 1-1h8l-5-1 2-2z" fill="#E5C191"/>
<path transform="translate(1246,1812)" d="m0 0h9l5 1-1 2-3 1-1 51 10 1v2h-27l-1-2 10-1v-52h-8l-2-2z" fill="#2D271E"/>
<path transform="translate(891,510)" d="m0 0h1l1 10 2-1 1-5 7 1h9l4 4 1 2v8l-12 3-1 1v12l4 6 8 4h7l7-4 2-3 1-8h5l-1-12 2 3 1 4-3 13-4 6-7 5-4 1h-8l-7-3-6-5-4-10v-8l4-6 6-4 4-2-1-3-8 1-8 2-3-3z" fill="#F8D496"/>
<path transform="translate(329,1812)" d="m0 0 17 1-3 2-6 1v50l9 2 1 2h-27l3-3h6v-48l-2 2-7 19-8 20-2 1 1-5 10-27 6-15z" fill="#090807"/>
<path transform="translate(1e3 481)" d="m0 0 5 4h2l2 10 1 1h9l-1 2h-3v3l9 3 2 10h7l2-4 1 2-4 5h-3v2l4 1-4 1h-7l-5-1v-4h2l-1-8h-4l-2 1v-5h-12l-3-2 1-3h-4l-1 2h-2l-1 3-3 1-2-3-5-1-1-4h2v3h7l1-4h-3l-1-6 5 1 2 2h5zm4 18-2 4 3-1z" fill="#E7C599"/>
<path transform="translate(799,477)" d="m0 0 2 4v3l3 2-4 4 5 6 2 8-1 7 1 9-2-2-2 3-2 4-2 2-3-1 3-7v-10l-1-7-5-2v20l1 4-5 1-2-7v-18l1-13 5 1v2h3z" fill="#E8CAA2"/>
<path transform="translate(1186,1812)" d="m0 0h16l1 2-10 4-16 16 2 5 11 15 6 10 8 5v1h-22v-2l5-1-1-5-9-13-5-7v-2l-5 3-6 7h-1v-5l16-14 12-12z" fill="#201E1C"/>
<path transform="translate(1633,1812)" d="m0 0h17l9 1-1 2-7 1-1 20v31l9 1 1 2-7 1-20-1v-2l9-1v-51l-9-2z" fill="#21201F"/>
<path transform="translate(1227,435)" d="m0 0h9l6 3 5 7 1 7-3 5-5 4h-5l-3-3 1-6 1-2-5 1-1-3 4-4h5l2 2 1-3-4-3-5-1-6 4-5 8-5 4-1-4h-5l2-7 5-1 4-4z" fill="#F8CE85"/>
<path transform="translate(1010,575)" d="m0 0 35 1 18 1v3l-9-1-5 1h-6l-5 3-61-1v-3l-6-2v-1z" fill="#FBD28A"/>
<path transform="translate(1336,1812)" d="m0 0h30v2h-15l-1 2v52l-7 1-1-1v-50l-1-2-8-2z" fill="#272523"/>
<path transform="translate(1436,1812)" d="m0 0 6 1 7 6 6 11 1 4v16l-5 10-8 8-5 2 2-6 4-6 2-6v-23l-5-10-5-4z" fill="#23211E"/>
<path transform="translate(814,487)" d="m0 0h2l1 5h4v-2l12 1 1 1v5l-9 8-1 7-7 10v3l-3 1 1-11 6-9-7 6h-2l-2-15-1-4 3-5zm1 5m-1 1v3z" fill="#E7C79D"/>
<path transform="translate(1019,1074)" d="m0 0h9l7 3-2 4-8 7-5 5-5-1-2-1v-2l-9-1v7h-2l-1-2v10l-1 9h-2l-1-10-4-15 1-4h2l2 7 2-7h8l7 3 1-9z" fill="#1C1A17"/>
<path transform="translate(561,1812)" d="m0 0h20v1l-9 1-1 1v51l1 3h-9l-1-3 1-3v-48h-8l-1-2z" fill="#0C0B0A"/>
<path transform="translate(1056,486)" d="m0 0 5 1 2 2-1 6-7 8-6 2h-8l-1 8-4 6-3 1-4-1v-2l5-3 1-5 1-13h7l3-1 3-7z" fill="#F8CF88"/>
<path transform="translate(1181,488)" d="m0 0 5 2v4l-5-2-1 5-3 5h3l1-5h2l1 7-2 7-2 2-1 9-3-4-8-14-6-9 1-5h15zm-5 20 1 4h2v-4z" fill="#E8C89F"/>
<path transform="translate(1101,508)" d="m0 0 3 1-1 8-3 5-5-1-6-2h-7l1 4 6 2 6 4 2 4v11l-4 8-5 4h-1v-5l4-6 1-3v-7l-2-3-10-2-1-1v-9l2-4 2-1h12l4 1 1-7z" fill="#E7C79D"/>
<path transform="translate(1085,607)" d="m0 0 14 1-2 1v2h-4v2h5l-2 2-4 1 4 2h11l8-2 2 4 14 1-1 3-36-3-26-4v-1l9-1 2-3h-3v-3l5 1z" fill="#E8C493"/>
<path transform="translate(1032,459)" d="m0 0 7 1 5 5 2 3-1 4-3 2 8 10 2 4-5 2-6-8-10-7-1-3 3-1h5l-1-4-6-1-5 1-2 4-2-3-2 1 1-5 7-4z" fill="#E8C699"/>
<path transform="translate(923,633)" d="m0 0h7l-3 3 3 3-37 4-20 2 2-4-2-2 1-1 33-3z" fill="#E7C393"/>
<path transform="translate(1136,595)" d="m0 0 18 2-3 2h-5l-1 8 4 2-5 3-2 3 2 1-1 7 3 4-7 2-3 1-5-1 3-2-1-5 4-6h-2l2-8-2-4-3 3h-2l2-5 4-1v-2h2zm4 7-3 4 2 1 3-3v-2z" fill="#E6C191"/>
<path transform="translate(945,1019)" d="m0 0 2 1v2h3l7 12 13 8v2l-10-3-4-1 3 9 10 3 4 2-2 2-1 2 1 4 2 1-2 2-4-1-4-8-10-3 1-5-4-15-5-11z" fill="#4D4943"/>
<path transform="translate(817,463)" d="m0 0 4 1v8l-6 1-5 1 5 1 9-1v3l-4 1-2 2-8 1-3 1v2l-6 1-1-5 1-5 4-8 5-3 6 3z" fill="#FAD086"/>
<path transform="translate(694,1812)" d="m0 0h16l10 2 6 7 1 2v9l-5 7-7 1 3-11-1-8-2-4-2-1-19-1z" fill="#433C33"/>
<path transform="translate(807,516)" d="m0 0h1l1 26-3 4-2-1-3-5-6-5-5-8 1-3h5l1 2 4-2 2-5z" fill="#FACF84"/>
<path transform="translate(807,456)" d="m0 0 5 1v2l-4 1-1 5-5 5-4 6-3 11h-3l-2-8v-11l3-3 8-6 1-2z" fill="#E6C397"/>
<path transform="translate(930,1812)" d="m0 0h17v3l-6 1v38l-5 10-5 5-5 1-6-1v-1l8-1 6-7 3-9v-35l-7-2z" fill="#FEFEFE"/>
<path transform="translate(877,517)" d="m0 0h6l1 4 2 1 1-2-1 4-10-2 3 3v2l4 2 5 5-1 5-6-6h-5l-4 3h-4v-13l5-5z" fill="#F9D391"/>
<path transform="translate(760,445)" d="m0 0h9v4l6 4 5 2 2-3 1 5-2 3 1 9 5 12 2 6-2 3v-2h-2l-6-13-4-14-5-5-4-5-1-3h-12l3-2z" fill="#EACEAA"/>
<path transform="translate(1151,1595)" d="m0 0h50l-1 4-16 4-2-4h-3v-2l-9 2-3 3-7-1-7-2z" fill="#FBCE7F"/>
<path transform="translate(937,485)" d="m0 0 5 2 5 3 1 5h2l1 2v6l-8 1-6-4-4-6v-6z" fill="#F9CE85"/>
<path transform="translate(1227,435)" d="m0 0h9l6 3 4 6h-5l-5-4-5-1-6 4-5 8-5 4-1-4h-5l2-7 5-1 4-4z" fill="#F7CE86"/>
<path transform="translate(957,460)" d="m0 0h11l-4 2v2l-7 2-1 6 8-1 1 4-9 5-7 6-1 5-6-3v-1h5l1-7 5-5-1-3-3-1 1-5z" fill="#EACDA8"/>
<path transform="translate(1229,444)" d="m0 0 3 1-2 5h4l-2 6-4-2-6 4-6 18h-6l3-15 4-6 5-5z" fill="#F2CA89"/>
<path transform="translate(1119,1812)" d="m0 0h15l4 2-7 3v26l-1 12-4 9-7 6-3 1-3-3 7-3 4-5 2-5 1-6v-33l-5-1-3-1z" fill="#EACDA8"/>
<path transform="translate(417,1851)" d="m0 0 2 1 4 10 5 4 3 1h12l4-5 2-8 6 2-3 8-8 7h-14l-9-5-1 5h-3l-1-19z" fill="#4B4945"/>
<path transform="translate(888,536)" d="m0 0 2 3 6 15-1 4-2-1-1 4-3 1 2-10-1-1-3 8-6 7-4 2h-6l-7-6-2-8 1-7h1l1 11 5 6h4l6-3 5-8 3-4-2-10z" fill="#E9CAA3"/>
<path transform="translate(751,444)" d="m0 0h2v4l5-1h7l2 6-5 7-6 1-6-4-2-3v-7z" fill="#F8CE85"/>
<path transform="translate(282,1814)" d="m0 0 3 1-2 1 1 16v33l8 2 1 3h-20v-2l7-3 1-50z" fill="#FCFBF9"/>
<path transform="translate(1115,517)" d="m0 0 7 1 4 2 2 5v10l-8-1-4-1-6 4 1-7 6-7v-4h-2z" fill="#F7CE89"/>
<path transform="translate(794,493)" d="m0 0 8 2 2 4 3 3-1 9 1 9-2-2-2 3-2 4-2 2-3-1 3-7v-10l-1-7-5-5z" fill="#E9CAA3"/>
<path transform="translate(993,1812)" d="m0 0h18l1 3-6 1-1 49-2-4-2-6v-38l-8-3z" fill="#FCFAF8"/>
<path transform="translate(375,1820)" d="m0 0 2 1-1 6-7 20h-2l2 5h-2l-2 7v6l4 2 1 3h-18v-2l6-3 5-10 8-25z" fill="#847F79"/>
<path transform="translate(1579,1848)" d="m0 0h1v10l-3 11-2 1h-46v-3l8-1 1 2 6 1v-2l25-1 5-4z" fill="#FDFBFA"/>
<path transform="translate(670,1848)" d="m0 0h1v12l-2 9-2 1h-47l1-3 7-1v2h7l2-2h23l6-4 2-4z" fill="#ECD3B2"/>
<path transform="translate(1688,1821)" d="m0 0 2 1-2 9-6 16-2 5-2 12 4 4v2h-17l1-3 7-4 12-35z" fill="#C7C1B9"/>
<path transform="translate(1275,1813)" d="m0 0 4 1 1 3 1 48 8 2v3h-19l1-3 6-1v-48z" fill="#FCF9F5"/>
<path transform="translate(808,1816)" d="m0 0h1l1 5 1 20v15l1 9 7 3 1 2-18 1-2-2 3-3 3-1 1-2z" fill="#ECD3B2"/>
<path transform="translate(1599,1809)" d="m0 0h11l5 2h9v19l-2 1-5-13-4-5-3-1h-10l-4 4-2 10-2-2-2-6 4-6z" fill="#F5F0E8"/>
<path transform="translate(1505,1812)" d="m0 0h14l2 2-6 3-1 40-2 4-2-5h2l-1-2-1-37-6-3z" fill="#FCF9F6"/>
<path transform="translate(836,509)" d="m0 0 3 1 1 5h2l2-3 3 4 1 9-5 8-3 3h-3l-1-5 3-6-1-8-2-1-1-4z" fill="#F8CE86"/>
<path transform="translate(1e3 1124)" d="m0 0 6 2 6 3 6-1-2 4-5 9-6 18-6 11-1-4 6-15 3-11 2-6-7-6-2-1z" fill="#4B453E"/>
<path transform="translate(965,1817)" d="m0 0h2l1 48 7 3-1 3-18-1-1-2 9-3z" fill="#F2E2CC"/>
<path transform="translate(1473,1816)" d="m0 0 3 1-1 49 9 2v2h-19l1-3 5-2 1-7z" fill="#FAF4EC"/>
<path transform="translate(950,496)" d="m0 0h7l2 1 1 12 3 5 7 1 2 4 2 2h-8l-5-2-4-5-3-9-10-1v-1h7z" fill="#E8C89F"/>
<path transform="translate(1173,533)" d="m0 0h7l1 3v8l-4 9-1 2-6-2-1-4 2-3z" fill="#ECC68D"/>
<path transform="translate(837,1812)" d="m0 0h15l5 1v2l-8 1-1 44-3-4v-39l-8-3z" fill="#FBF8F3"/>
<path transform="translate(985,490)" d="m0 0 5 1 2 2 15 2v3l-5 5 2 1-7-1 1-4h-4l-1 2h-2l-1 3-3 1-2-3-5-1-1-4h2v3h7l1-4h-3z" fill="#EEC68A"/>
<path transform="translate(1588,1851)" d="m0 0h2l5 12 4 3 3 1h12l2-1v2l2 1-3 2h-13l-8-4-3 4-3-1z" fill="#9E9487"/>
<path transform="translate(966,629)" d="m0 0h42v1l-10 2-65 1v-1z" fill="#E6C498"/>
<path transform="translate(1064,588)" d="m0 0h25v1l-6 1h-10l-5-1 1 7 1 3h-8l-4-1-4 4v-7z" fill="#E7C291"/>
<path transform="translate(1e3 1095)" d="m0 0 4 4 8 14 7 9-2 2-12-1-7-2 2-2h12l-6-7-6-14z" fill="#46413B"/>
<path transform="translate(1014,1156)" d="m0 0 1 3-11 26-10 18-2 1 1-7 15-30z" fill="#3B352E"/>
<path transform="translate(1101,508)" d="m0 0 3 1-1 8-3 5-5-1-6-2h-7l1 4 2 1-5 1-1 4v-9l2-4 2-1h12l4 1 1-7z" fill="#EACEA9"/>
<path transform="translate(639,1812)" d="m0 0h29l2 12v7l-2-3-5-10-3-2-23-1z" fill="#0F0E0C"/>
<path transform="translate(857,533)" d="m0 0 8 6 3 2 1 17 5 6-1 2-5-3-4-5v-11h-2l-4-10z" fill="#F9D18C"/>
<path transform="translate(868,1595)" d="m0 0h26l1 4-1 1-18 2-10-5z" fill="#EEC78B"/>
<path transform="translate(1549,1812)" d="m0 0h26l2 5 2 14h-2l-5-13v-2l-27-1z" fill="#595147"/>
<path transform="translate(992,460)" d="m0 0h11l6 3v9l-2 2-2-1-1 2-1-5v-5l-5-2-5 2-4 6-2 4v-5l-3-2 4-4z" fill="#E7C69B"/>
<path transform="translate(1e3 1204)" d="m0 0 1 4-9 16-11 17-5 4 2-6 8-13 9-15z" fill="#40392F"/>
<path transform="translate(1032,471)" d="m0 0 8 1 8 9 4 7-5 2-6-8-10-7-1-3z" fill="#E9C696"/>
<path transform="translate(429,1809)" d="m0 0h10l9 3 4-2 1 1v18h-3l-5-13-5-4h-13l-1-2z" fill="#5B5956"/>
<path transform="translate(790,433)" d="m0 0h6l1 3-2 8-3-1 4 7-7-2-2-7h-4l2-5z" fill="#EED6B5"/>
<path transform="translate(834,499)" d="m0 0 7 1-1 4-1 3 5 5-2 5-4-4v-3l-2-1v2h-3l-2-3-2 2-1-6z" fill="#E6C291"/>
<path transform="translate(1e3 1719)" d="m0 0h3l-1 6 4 1-5 4-7 2h-4l-1-4v-4l10-4z" fill="#F8CC81"/>
<path transform="translate(1061,600)" d="m0 0 8 1-2 1v14l-9-1-2-1v-2l4-2-3-1 2-7z" fill="#EACCA5"/>
<path transform="translate(1030,1096)" d="m0 0 8 4 4 1v3h-2l2 18-2 12-2-2v-13l-1-12-1-3-9-6z" fill="#EEE3D6"/>
<path transform="translate(1186,1812)" d="m0 0h16l1 2-10 4-18 18-2-3 10-9 5-5z" fill="#C9BAA6"/>
<path transform="translate(581,1812)" d="m0 0 14 1 3 2-2 1v3l-5-3h-19l-1 50h-1v-51l2-2z" fill="#EBD1AF"/>
<path transform="translate(937,528)" d="m0 0 2 3 1 4-3 13-4 6-7 5h-5l-2-3 8-3 5-5 1-8h5z" fill="#E9CBA4"/>
<path transform="translate(966,1226)" d="m0 0 1 2-8 10-5 6-8 7-3 1v2l-8 5-2-1 12-11z" fill="#584F44"/>
<path transform="translate(1137,616)" d="m0 0h7l-1 7 3 4-7 2-3 1-5-1 3-2-1-5z" fill="#E7C290"/>
<path transform="translate(972,482)" d="m0 0 2 1-1 4-1 1-9 1-7 3h-4l1-5 7-4h7z" fill="#E9CCA5"/>
<path transform="translate(940,1833)" d="m0 0h1v21l-5 10-5 5-5 1-6-1v-1l8-1 6-7 3-9 1-7h2z" fill="#E3C9A6"/>
<path transform="translate(1309,1812)" d="m0 0h16l2 2-7 2v9l-1 10h-1l-1-7-1-3-1-8-6-3z" fill="#4A443C"/>
<path transform="translate(779,460)" d="m0 0h1l3 12 6 13-1 5-1-2h-2l-6-13-3-10 1-3 2 1z" fill="#FEFEFE"/>
<path transform="translate(476,1850)" d="m0 0 2 3-2 5v7l5 5-16 1v-4l6-4z" fill="#54514E"/>
<path transform="translate(1022,481)" d="m0 0 10 2 2-1 9 6v3l-4 1-5-3-13-3z" fill="#E8C89F"/>
<path transform="translate(971,576)" d="m0 0h18l7 1 3 2 2 2-7 1h-17v-3l-6-2z" fill="#E5C192"/>
<path transform="translate(1562,1830)" d="m0 0h1l1 12-1 8-2-1-2-6-1-1-14-1v-3l15-1z" fill="#34322E"/>
<path transform="translate(1059,1812)" d="m0 0h14l1 2 1 17-2-2-2-8-2-4-11-2h-6l3-2z" fill="#7A7369"/>
<path transform="translate(989,576)" d="m0 0h23l-3 1v3l9 1v1h-24v-1l5-1-12-1z" fill="#FCD99D"/>
<path transform="translate(653,1830)" d="m0 0h2v21l-2-1-1-7-5-1h-11v-4h8l8-2z" fill="#CBBFAF"/>
<path transform="translate(957,460)" d="m0 0h11l-4 2v2l-7 2-1 8-2 1-2-1v-2l-3-1 1-5z" fill="#EACDA8"/>
<path transform="translate(1204,506)" d="m0 0 2 2 2-1v10l-4 11-3 5-2-4-1-3 4-5z" fill="#E7C79C"/>
<path transform="translate(1367,1866)" d="m0 0 5 1v2l-5 1h-34v-2l2-1h7l1 1 7-1z" fill="#EFDBC0"/>
<path transform="translate(588,1866)" d="m0 0 8 1-3 2-6 1h-33l1-3h7l1 1 9 1v-2z" fill="#F6EADB"/>
<path transform="translate(759,1820)" d="m0 0 2 1-2 10-6 17h12v1h-15l1-6z" fill="#ECE3D7"/>
<path transform="translate(327,1814)" d="m0 0h2l1 5h-2l-8 21-8 20-2 1 1-5 10-27z" fill="#ECE8E2"/>
<path transform="translate(1619,1811)" d="m0 0h5v19l-2 1-4-11-1-8z" fill="#47413B"/>
<path transform="translate(361,1859)" d="m0 0h2l2 6 4 2 1 3h-18v-2l6-3z"/>
<path transform="translate(1050,524)" d="m0 0 3 1-4 6v17l-2 1-1-10-5-3-1-3 5-3z" fill="#E7C79C"/>
<path transform="translate(830,514)" d="m0 0h6l2 4h-3l2 13v5l-3-3-1-5-5-10z" fill="#EACEAA"/>
<path transform="translate(888,536)" d="m0 0 2 3 6 15-1 4-2-1-1 4-3 1 2-10-3-3-2-10z" fill="#EFDABE"/>
<path transform="translate(796,1719)" d="m0 0h2l1 3 5 1 3-2 1 4-4 8h-3l-5-10z" fill="#ECC790"/>
<path transform="translate(1e3 1124)" d="m0 0 6 2 6 3 6-1-2 4-4 6-3 1v-5l-7-6-2-1z" fill="#4C4439"/>
<path transform="translate(1028,576)" d="m0 0h17l18 1v3l-9-1-5 1h-6l-2 1h-9l3-3-7-1z" fill="#E7C79D"/>
<path transform="translate(1182,1595)" d="m0 0h19l-1 4-14 3-1-5-3-1z" fill="#E9C490"/>
<path transform="translate(994,1083)" d="m0 0h2l2 7 2 2 1 11-1 9h-2l-1-10-4-15z" fill="#7B756C"/>
<path transform="translate(825,475)" d="m0 0 5 5 1 6h-6l-6-4-1-2 3-4z" fill="#F9D089"/>
<path transform="translate(723,1595)" d="m0 0h15l1 3-1 3h-8l-7-2z" fill="#E9C593"/>
<path transform="translate(999,540)" d="m0 0 2 1 5 10 8 9h-3l-5-1-7-11-1-7z" fill="#ECD2B0"/>
<path transform="translate(822,505)" d="m0 0h2l1 5-8 12v3l-3 1 1-11z" fill="#EBD0AD"/>
<path transform="translate(966,1862)" d="m0 0 2 3 7 3-1 3-18-1-1-2 10-4z" fill="#ECD3B2"/>
<path transform="translate(763,434)" d="m0 0 8 2-4 2 1 3-3-1h-7l-3 3v4h-2v-3l-3 1 2-5 5-4z" fill="#FCFAF7"/>
<path transform="translate(1227,435)" d="m0 0h9l6 3 4 6h-5l-5-4-5-1-7 4 1-3 2-1z" fill="#E6C59A"/>
<path transform="translate(449,1854)" d="m0 0 6 2-3 8-7 6-8-1v-1l7-2 4-6z" fill="#75716B"/>
<path transform="translate(330,1845)" d="m0 0h1v20l-1 4 10-2 7 2v1h-27l3-3h6z" fill="#F9F3EA"/>
<path transform="translate(487,1818)" d="m0 0h1l1 6-8 22h-3l2-9z" fill="#C4C0BB"/>
<path transform="translate(1588,1851)" d="m0 0h2l3 8-1 11h-4z" fill="#201E1B"/>
<path transform="translate(985,490)" d="m0 0h4l4 7v4h-2l-1 3-3 1-2-3-5-1-1-4h2v3h7l1-4h-3z" fill="#E6C190"/>
<path transform="translate(930,593)" d="m0 0 2 4 1 16-2 2-3-5-2-2 1-1v-5z" fill="#E5C192"/>
<path transform="translate(282,1864)" d="m0 0 10 3 1 3h-20v-2z" fill="#FCF9F6"/>
<path transform="translate(1579,1848)" d="m0 0h1v10l-2 9-6 1-2-2 4-4z" fill="#96918A"/>
<path transform="translate(1473,1862)" d="m0 0 2 1v3l9 2v2h-19l1-3 5-2z" fill="#F2E0CA"/>
<path transform="translate(1083,515)" d="m0 0h12l-3 4h-10l1 4 2 1-5 1-1 4v-9l2-4z" fill="#FEFEFE"/>
<path transform="translate(1136,592)" d="m0 0 13 1 14 2 6 2-4 1-31-4z" fill="#E6C190"/>
<path transform="translate(1013,577)" d="m0 0h12l4 1-1 4h-10l-9-2 4-1z" fill="#E5C191"/>
<path transform="translate(1175,541)" d="m0 0m-1 1 1 2 2 1v2l1 4-2 4-6-2-1-4 3-6z" fill="#F9CE82"/>
<path transform="translate(1277,1865)" d="m0 0 8 1 4 1v3h-19l1-3z" fill="#83786A"/>
<path transform="translate(1035,1867)" d="m0 0h7l4 1 5 1v-2l12 1 1 2h-33l-1-2z" fill="#EACFAB"/>
<path transform="translate(670,1848)" d="m0 0h1v12l-2 7-1 1h-9l8-8z"/>
<path transform="translate(1505,1812)" d="m0 0h14l2 2-6 3-2 4-1-4-7-2z" fill="#231F1B"/>
<path transform="translate(1105,591)" d="m0 0h8l4 3-2 1v2l-21-2-3-2 14 1z" fill="#E9C99F"/>
<path transform="translate(768,437)" d="m0 0h5l4 4v2l7 2v2h-4l-1 2-4-2-5-5z" fill="#FAD086"/>
<path transform="translate(868,609)" d="m0 0 2 4 9 9v3h-5l-6-8-1-5z" fill="#EED7B9"/>
<path transform="translate(967,498)" d="m0 0 6 9v6l-2 1-6-2-1-3 2-4zm2 7v4l1-4z" fill="#E6C497"/>
<path transform="translate(819,474)" d="m0 0h5v3l-4 1-2 2-8 1-3 1 1-6 10-1z" fill="#E9CBA3"/>
<path transform="translate(993,1812)" d="m0 0h18l1 3-2 1h-11l-6-2z" fill="#2E2922"/>
<path transform="translate(1127,1849)" d="m0 0h1l1 9-3 6-7 6-3 1-3-3 7-3 4-5 2-5z" fill="#EAE3D8"/>
<path transform="translate(367,1847)" d="m0 0 18 1 3-1 1 5-21-1z" fill="#342E28"/>
<path transform="translate(1063,1594)" d="m0 0h10v6h-9l-3-2v-3z" fill="#EDCFA4"/>
<path transform="translate(879,639)" d="m0 0h11l5 1h7l-1 2-21 2 1-4z" fill="#F8CD83"/>
<path transform="translate(1179,458)" d="m0 0h2l-1 4-2 4 2 1-1 5h-4l-2-4v-6z" fill="#E7C69C"/>
<path transform="translate(877,517)" d="m0 0h6l1 4 2 1 1-2-1 4-10-2-2 1-3-3 2-2z" fill="#EACEAA"/>
<path transform="translate(1160,1864)" d="m0 0 2 2 8 2v2h-26v-2l2-1h6l8 2z" fill="#DEC8AA"/>
<path transform="translate(1151,1595)" d="m0 0h15l-2 1-1 5-10-2z" fill="#EEC78C"/>
<path transform="translate(808,542)" d="m0 0 2 4 4 7-4 4-5-9 1-3z" fill="#E5C293"/>
<path transform="translate(1216,456)" d="m0 0 4 2-3 3-3 10 2 3-1 2h-5l3-15z" fill="#E8C79C"/>
<path transform="translate(997,404)" d="m0 0 4 1 1 2-5 3-6 9-2-6 6-8z" fill="#FEFEFE"/>
<path transform="translate(1636,1867)" d="m0 0h6l6 1 4-1 7 1 1 2-7 1-20-1v-2z" fill="#F8F0E6"/>
<path transform="translate(1146,542)" d="m0 0 3 4-2 5-4 2-3-7 3-3z" fill="#F7CC85"/>
<path transform="translate(1024,494)" d="m0 0 4 5 4 10v2l-4-1-3-9h-2l-1-4z" fill="#E9CBA4"/>
<path transform="translate(837,1812)" d="m0 0h15l5 1v2l-5 1-6-1-1 2-8-3z" fill="#282521"/>
<path transform="translate(794,493)" d="m0 0 8 2 2 4-1 4-4-2-4-1-2-3z" fill="#FBCF81"/>
<path transform="translate(790,474)" d="m0 0 5 2 3-2-3 13h-3l-2-8z" fill="#E9CCA6"/>
<path transform="translate(1704,1866)" d="m0 0 1 2 14-1 4 1v2l-7 1-16-1 1-3z" fill="#FCFAF7"/>
<path transform="translate(1186,1812)" d="m0 0h16l1 2-8 2-7 1z" fill="#45413D"/>
<path transform="translate(930,1812)" d="m0 0h17v3l-4 1h-8l-5-2z" fill="#3B3631"/>
<path transform="translate(1242,1867)" d="m0 0h5v1h7l2 1v-2l9 1v2h-27l-1-2z" fill="#EED7BA"/>
<path transform="translate(693,1838)" d="m0 0 1 3 18-1 3-1 4 2-6 2-20 1z" fill="#F9F2E8"/>
<path transform="translate(639,1812)" d="m0 0h12l9 2v1h-23z" fill="#DCC8AC"/>
<path transform="translate(992,460)" d="m0 0h5l-1 3-5 5-3 7h-1v-5l-3-2 4-4z" fill="#EACDA7"/>
<path transform="translate(1210,444)" d="m0 0 1 3v4l-4 9h-2v-11z" fill="#E6C497"/>
<path transform="translate(1317,1826)" d="m0 0h1l1 9v12l-3 1v-20z" fill="#3F3528"/>
<path transform="translate(1055,536)" d="m0 0 2 3 1 9 5 5 3 4h-5l-4-4-2-7z" fill="#E7C69C"/>
<path transform="translate(368,1839)" d="m0 0 2 3-1 5h-2l2 5h-2l-3 9-2-4z" fill="#D4D0CB"/>
<path transform="translate(637,1867)" d="m0 0h32v2l-2 1h-9l-21-2z" fill="#FCF9F5"/>
<path transform="translate(1055,556)" d="m0 0 7 6 4 4-9-3-2-3-6 5v2h-2l1-4 4-4h2z" fill="#E7C89E"/>
<path transform="translate(682,1867)" d="m0 0 10 1 5-1 6 1v2h-25v-2z" fill="#F2E9DD"/>
<path transform="translate(803,1866)" d="m0 0 6 2 5-2 5 2 1 2-18 1-2-2z" fill="#EFE2D2"/>
<path transform="translate(1119,1812)" d="m0 0h15l4 2-7 2-12-2z" fill="#302D2A"/>
<path transform="translate(581,1812)" d="m0 0 14 1 3 2-2 1v3l-7-4-17-1v-1z" fill="#D1B794"/>
<path transform="translate(777,1865)" d="m0 0v3h16v3l-23-1v-2z" fill="#F2E2CC"/>
<path transform="translate(1670,1865)" d="m0 0 2 2h6 3l1 3h-17l1-3z" fill="#F2EADF"/>
<path transform="translate(429,1809)" d="m0 0h10l8 4v5l-7-6h-13l-1-2z" fill="#F5E9DA"/>
<path transform="translate(1037,1177)" d="m0 0h1v9l-1 10-2 3h-2l1-10z" fill="#9A938A"/>
<path transform="translate(892,507)" d="m0 0h3l1 2v10l-3 1-2-10z" fill="#FACE83"/>
<path transform="translate(957,460)" d="m0 0h11l-4 2v2l-7 1-6 1 4-5z" fill="#F9F3EC"/>
<path transform="translate(512,1866)" d="m0 0 9 3v1h-23l-1-2 6-1 1 1 8 1z" fill="#E1D7CA"/>
<path transform="translate(874,638)" d="m0 0h14v1l-7 1v2l2 1-6 2-4-1 2-3-2-2z" fill="#E5C191"/>
<path transform="translate(973,501)" d="m0 0 10 1 4 4-4 1h-3l-4 1-1-4-2-1z" fill="#E5C192"/>
<path transform="translate(814,487)" d="m0 0h2l1 6-3 1v3h-4l-1-4 3-5z" fill="#FCFBF9"/>
<path transform="translate(740,1866)" d="m0 0 10 3-1-3 5 2v2h-18l1-3z" fill="#F0E4D5"/>
<path transform="translate(934,1860)" d="m0 0 4 1-4 6-4 3-10-1v-1l8-1z" fill="#F3E3CF"/>
<path transform="translate(754,1836)" d="m0 0h1l-1 9-1 3h12v1h-15l1-6z" fill="#ACA69D"/>
<path transform="translate(988,1229)" d="m0 0 1 3-7 10-4 3 2-6 5-8z" fill="#827769"/>
<path transform="translate(1087,584)" d="m0 0 12 1 3 1 9 2v1l-14-1-12-2z" fill="#E8C79D"/>
<path transform="translate(863,547)" d="m0 0h1l1 11 7 8 5 1v1h-6l-7-6-2-8z" fill="#EFDBC0"/>
<path transform="translate(891,510)" d="m0 0h1l1 10 2-1 1-5 6 2v4l-8 2-3-3z" fill="#EACEA9"/>
<path transform="translate(830,482)" d="m0 0 3 1h8l-4 2-1 2 2 1-6 1-6-3 4-1z" fill="#E6C499"/>
<path transform="translate(1168,477)" d="m0 0h5v2h2l-1 4-7 1-1-3z" fill="#F9CD81"/>
<path transform="translate(1176,472)" d="m0 0 4 1h-3v2l4 1h-3l-2 5-1-2h-2v-2l-4-1 4-3z" fill="#EDD4B5"/>
<path transform="translate(809,464)" d="m0 0 5 2-4 2-1 3-4 1-2 5h-3l5-10z" fill="#E8C8A0"/>
<path transform="translate(903,515)" d="m0 0h9l3 3-3 3-2-2h-8v-3z" fill="#FEFEFE"/>
<path transform="translate(388,1867)" d="m0 0 5 1h9l3-1 5 2v1h-25v-2z" fill="#F7EEE3"/>
<path transform="translate(1367,1866)" d="m0 0 5 1v2l-10 1-10-2v-1z" fill="#FCF9F6"/>
<path transform="translate(1069,1119)" d="m0 0h2v12l-1 3h-2l-1-5z" fill="#52493C"/>
<path transform="translate(1023,1173)" d="m0 0 1 3-4 18-3-2 3-11z" fill="#867F76"/>
<path transform="translate(1206,495)" d="m0 0h1l1 5v7l-3 2-2-9-3-2h5z" fill="#E5C294"/>
<path transform="translate(1095,486)" d="m0 0h2v6l2-3 1 11h-3l-2-4z" fill="#E8C79B"/>
<path transform="translate(944,1214)" d="m0 0h2v2l-14 7-3-1 9-6z" fill="#8A857E"/>
<path transform="translate(1536,1866)" d="m0 0 2 2 6 1 1-2 4 2-4 1h-16v-3z" fill="#F7EDE0"/>
<path transform="translate(1424,1810)" d="m0 0h8l5 1-1 3-10-1-5 1-1-3z" fill="#E6E0D8"/>
<path transform="translate(1065,1103)" d="m0 0h1l-1 11-2 14h-1v-14l2-10z" fill="#FDFCFB"/>
<path transform="translate(1108,624)" d="m0 0h8l13 2v2l-14-1-7-2z" fill="#E6C59A"/>
<path transform="translate(1103,559)" d="m0 0 2 1 2 9h-5l-1 2v-7z" fill="#E6C497"/>
<path transform="translate(1544,1838)" d="m0 0h13v3h-13z" fill="#FBF7F2"/>
<path transform="translate(1593,1813)" d="m0 0h3l-2 13-2-2-2-6z" fill="#A69C8E"/>
<path transform="translate(973,1228)" d="m0 0 1 4-6 8h-3l2-4z" fill="#4E4D4A"/>
<path transform="translate(366,1866)" d="m0 0 3 1 1 3h-18v-2l3-1 11 2z" fill="#F9F2E9"/>
<path transform="translate(1054,1098)" d="m0 0 2 1-1 2-6 2h-7l1-3z" fill="#2E2B27"/>
<path transform="translate(791,506)" d="m0 0h1l1 14 1 4-5 1-1-6h2z" fill="#F1DCBF"/>
<path transform="translate(963,461)" d="m0 0h8l3 3-5-1v5l-5-3z" fill="#E8C9A0"/>
<path transform="translate(974,415)" d="m0 0 6 1-1 2h-8v8l-3-4 1-5z" fill="#FEFEFE"/>
<path transform="translate(745,1860)" d="m0 0 2 1 2 5 1 3-7-1v-4z"/>
<path transform="translate(937,1816)" d="m0 0 4 1-2 17h-1z" fill="#E6C498"/>
<path transform="translate(887,1595)" d="m0 0h7l1 4-1 1h-7v-4z" fill="#EFD9BD"/>
<path transform="translate(1030,1096)" d="m0 0 9 5v3l-5-1-7-5z" fill="#807D79"/>
<path transform="translate(1575,1817)" d="m0 0h2l2 14h-2l-3-9z" fill="#FDFCFA"/>
<path transform="translate(1162,610)" d="m0 0h1v5l-3 3-1 3h-2v-9l2-1 1 3v-3z" fill="#E7C89E"/>
<path transform="translate(1161,527)" d="m0 0 2 2-4 7-4-1 2-5z" fill="#F8CF89"/>
<path transform="translate(1112,516)" d="m0 0 3 1v2l2 1-5 3-3 1-2-1v-4l4 1z" fill="#F2E1CA"/>
<path transform="translate(755,437)" d="m0 0 3 1-2 4-1 5h-2v-3l-3 1 2-5z" fill="#FEFEFE"/>
<path transform="translate(1006,1157)" d="m0 0h2l-2 6-4 7-1-4 4-8z" fill="#64594B"/>
<path transform="translate(1217,464)" d="m0 0h2l-1 6-2 4-3-2 2-7z" fill="#F4CB89"/>
<path transform="translate(1184,453)" d="m0 0 2 1-2 4-3 2v-2l-4 3-3-1 6-5z" fill="#FDFCFA"/>
<path transform="translate(1015,436)" d="m0 0 1 4-2 5-4-2 2-6z" fill="#FBCE7F"/>
<path transform="translate(1035,1867)" d="m0 0h7l1 3h-12l-1-2z" fill="#F1DFC8"/>
<path transform="translate(477,1866)" d="m0 0 4 4-16 1v-4l10 1 2 1z" fill="#F7EEE3"/>
<path transform="translate(1196,1865)" d="m0 0 6 2 2 3h-15l2-2h5z" fill="#CBBBA7"/>
<path transform="translate(282,1864)" d="m0 0 7 2 2 3-11-1v-3z" fill="#0E0C09"/>
<path transform="translate(1674,1862)" d="m0 0 5 3-1 3h-6v-4z"/>
<path transform="translate(1168,1838)" d="m0 0 3 1-5 5-5 6h-1v-5z" fill="#C6BBAC"/>
<path transform="translate(481,1835)" d="m0 0h2l-1 8-2 4-2-1 2-9z" fill="#9C9994"/>
<path transform="translate(892,552)" d="m0 0h3l1 6-3-1-1 4-3 1z" fill="#ECD4B3"/>
<path transform="translate(885,513)" d="m0 0 2 1 1 8-5-1v-7z" fill="#FBD593"/>
<path transform="translate(1180,466)" d="m0 0 4 1 2 4-7 1-1-3z" fill="#FBD28B"/>
<path transform="translate(1193,1595)" d="m0 0h8l-1 4-7 1z" fill="#E9CAA3"/>
<path transform="translate(1040,1121)" d="m0 0 2 1-2 12-2-2 1-10z" fill="#F2EDE7"/>
<path transform="translate(1015,1098)" d="m0 0 12 3 1 2-10-1-4-2z" fill="#746B5F"/>
<path transform="translate(897,636)" d="m0 0 4 1-3 2-10 1v-3z" fill="#F2D29F"/>
<path transform="translate(882,530)" d="m0 0 4 2 2 2-1 5-5-5-1-2z" fill="#EECE9F"/>
<path transform="translate(948,480)" d="m0 0 2 2h3l-4 4-1 5-6-3v-1h5z" fill="#FEFEFE"/>
<path transform="translate(1160,1864)" d="m0 0 2 2 8 2v2h-10z" fill="#F1EBE3"/>
<path transform="translate(670,1848)" d="m0 0h1v12l-1 5-3-4z" fill="#BCB2A5"/>
<path transform="translate(1512,1846)" d="m0 0 2 3v8l-2 4-2-5h2l-1-6z" fill="#F8EFE4"/>
<path transform="translate(636,1838)" d="m0 0h11v3l-11 1z" fill="#F8EFE4"/>
<path transform="translate(375,1820)" d="m0 0 2 1-1 6-2 4h-2l1-7z" fill="#605950"/>
<path transform="translate(995,1193)" d="m0 0h3l-1 5-4 6h-1l1-7z" fill="#736E68"/>
<path transform="translate(1e3 1131)" d="m0 0 4 2 1 3-2 4-4-5z" fill="#756857"/>
<path transform="translate(971,598)" d="m0 0h1l2 13 1 3-5-2z" fill="#F3E3CF"/>
<path transform="translate(868,601)" d="m0 0h1v8l-1 3h-2l-1-7-1-2z" fill="#E5C395"/>
<path transform="translate(937,549)" d="m0 0 4 2 1 2-7 4-1-2z" fill="#EBD1AE"/>
<path transform="translate(849,543)" d="m0 0h1l1 9-5-2 1-5z" fill="#FBD490"/>
<path transform="translate(588,1866)" d="m0 0 8 1-3 2-10 1 1-3z" fill="#FBF7F2"/>
<path transform="translate(810,1860)" d="m0 0h1l2 7-5 2-4-2 5-3z" fill="#070605"/>
<path transform="translate(1e3 511)" d="m0 0 2 1-2 9-3 1 1-4h-2v-3h2z" fill="#E6C190"/>
<path transform="translate(1569,1866)" d="m0 0 8 1v2l-2 1h-9l-1-2z" fill="#FAF5EE"/>
<path transform="translate(969,1866)" d="m0 0 6 2-1 3-7-1z" fill="#F5EADB"/>
<path transform="translate(1573,1863)" d="m0 0 5 1v3l-6 1-2-2z" fill="#090909"/>
<path transform="translate(1473,1862)" d="m0 0 2 1v3l6 1-1 2-10-2z" fill="#080605"/>
<path transform="translate(650,1837)" d="m0 0h3v6l-6-1v-4z" fill="#191613"/>
<path transform="translate(1688,1821)" d="m0 0 2 1-2 9-2 2-1-5z" fill="#776D60"/>
<path transform="translate(668,1816)" d="m0 0h1l1 15-2-3-2-7z" fill="#FCF9F6"/>
<path transform="translate(912,1131)" d="m0 0 2 1-10 8-3 1v-3z" fill="#81786D"/>
<path transform="translate(1100,590)" d="m0 0h5v4h-7v-2l-2-1z" fill="#F4CC89"/>
<path transform="translate(1204,506)" d="m0 0 2 2 2-1v10l-1-4h-2l-1 2z" fill="#FEFEFE"/>
<path transform="translate(1023,494)" d="m0 0v3 3h-8v-2l3-1 1-2z" fill="#F5CB84"/>
<path transform="translate(989,491)" d="m0 0 3 2 5 1 1 4-4 1v-2l-3-1z" fill="#ECC894"/>
<path transform="translate(1121,1864)" d="m0 0h2l-1 4-6 3-3-3 7-3z" fill="#B3A798"/>
<path transform="translate(966,1862)" d="m0 0 3 4-3 3h-4l-2-1v-2l5-2z" fill="#080705"/>
<path transform="translate(1180,1827)" d="m0 0 3 1-7 8-3-3z" fill="#E8D7C0"/>
<path transform="translate(933,1129)" d="m0 0 2 1-5 6-6 4 2-4 5-5z" fill="#61574B"/>
<path transform="translate(1156,629)" d="m0 0 5 2 1 2h-10l-4-2 3-1 5 1z" fill="#E5C192"/>
<path transform="translate(1088,580)" d="m0 0h8l6 1-4 2-10-1z" fill="#E9C593"/>
<path transform="translate(1173,533)" d="m0 0h7v4l-4 1-3-2z" fill="#FBD38D"/>
<path transform="translate(1181,488)" d="m0 0 5 2v4l-6-2-2-2z" fill="#FEFEFE"/>
<path transform="translate(1181,475)" d="m0 0 4 1 1 5-5-1-2-4z" fill="#E9C38E"/>
<path transform="translate(1283,1866)" d="m0 0 6 1v3h-11l3-2z" fill="#EED8BB"/>
<path transform="translate(1108,1868)" d="m0 0 7 1 1 2h-11v-2z"/>
<path transform="translate(918,1868)" d="m0 0 10 1v2h-13z"/>
<path transform="translate(1704,1866)" d="m0 0 1 2h9v1l-14 1 1-3z" fill="#F3E4D0"/>
<path transform="translate(1350,1867)" d="m0 0 12 2v1h-18l4-2z" fill="#E5C192"/>
<path transform="translate(1e3 1816)" d="m0 0h5l-2 13h-1v-8z" fill="#E6C59A"/>
<path transform="translate(1056,593)" d="m0 0 3 1-1 4-4 4v-7z" fill="#FEFEFE"/>
<path transform="translate(967,505)" d="m0 0 3 4-1 3h-4l-1-3 1-3z" fill="#F0DDC3"/>
<path transform="translate(792,470)" d="m0 0h4l1 5-3 2-2-1z" fill="#FCCF7F"/>
<path transform="translate(1229,444)" d="m0 0 3 1-4 4-3 2-3-1z" fill="#E5C396"/>
<path transform="translate(1025,474)" d="m0 0 4 1 1 2-6 1v-3z" fill="#EDD6B8"/>
<path transform="translate(997,1059)" d="m0 0 4 2v2l-5-1z" fill="#A19E9B"/>
<path transform="translate(1054,603)" d="m0 0h3v5h-3z" fill="#FEFEFE"/>
<path transform="translate(1006,1064)" d="m0 0 4 1v5l-1-3-3-1z" fill="#C7B194"/>
<path transform="translate(998,1077)" d="m0 0 2 4-3 1z" fill="#C6BFB5"/>
<path transform="translate(1049,1110)" d="m0 0h2l-1 4z" fill="#FEFEFE"/>
<path transform="translate(969,591)" d="m0 0 1 4h-2z" fill="#FEFEFE"/>
<path transform="translate(982,1090)" d="m0 0v3z" fill="#B8AFA3"/>
<path transform="translate(1e3 1078)" d="m0 0 2 1h-3z" fill="#F7EEE3"/>
<path transform="translate(1008,1077)" d="m0 0 2 1h-3z" fill="#FEFEFE"/>
<path transform="translate(1011,1061)" d="m0 0 4 1z" fill="#F7EEE3"/>
<path transform="translate(1022,1139)" d="m0 0 1 2-2-1z" fill="#F5E9DA"/>
<path transform="translate(1065,1100)" d="m0 0 2 1-2 1z" fill="#FEFEFE"/>
<path transform="translate(1054,1092)" d="m0 0 3 1z" fill="#FEFEFE"/>
<path transform="translate(1010,1074)" d="m0 0" fill="#FEFEFE"/>
<path transform="translate(1010,1070)" d="m0 0" fill="#FEFEFE"/>
<path transform="translate(820,1213)" d="m0 0" fill="#FEFEFE"/>
<path transform="translate(816,1204)" d="m0 0" fill="#FEFEFE"/>
<path transform="translate(811,1191)" d="m0 0" fill="#FEFEFE"/>
<path transform="translate(808,1184)" d="m0 0" fill="#FEFEFE"/>
<path transform="translate(804,1173)" d="m0 0" fill="#FEFEFE"/>
<path transform="translate(800,1161)" d="m0 0" fill="#FEFEFE"/>
<path transform="translate(1007,1049)" d="m0 0 2 1z" fill="#FEFEFE"/>
<path transform="translate(828,1230)" d="m0 0" fill="#FEFEFE"/>
<path transform="translate(824,1222)" d="m0 0" fill="#FEFEFE"/>
<path transform="translate(823,1219)" d="m0 0" fill="#FEFEFE"/>
<path transform="translate(817,1206)" d="m0 0" fill="#FEFEFE"/>
<path transform="translate(812,1195)" d="m0 0" fill="#FEFEFE"/>
<path transform="translate(809,1187)" d="m0 0" fill="#FEFEFE"/>
<path transform="translate(807,1181)" d="m0 0" fill="#FEFEFE"/>
<path transform="translate(1e3 1170)" d="m0 0" fill="#FEFEFE"/>
<path transform="translate(1066,1139)" d="m0 0" fill="#FEFEFE"/>
<path transform="translate(1014,1094)" d="m0 0" fill="#FEFEFE"/>
<path transform="translate(983,1089)" d="m0 0" fill="#FEFEFE"/>
<path transform="translate(984,1088)" d="m0 0" fill="#E5C192"/>
<path transform="translate(986,1085)" d="m0 0" fill="#FEFEFE"/>
<path transform="translate(1055,610)" d="m0 0" fill="#FEFEFE"/>
</svg>
