<?xml version="1.0" encoding="UTF-8"?>
<svg version="1.1" viewBox="0 0 2048 2048" width="1280" height="1280" xmlns="http://www.w3.org/2000/svg">
<path transform="translate(1023,859)" d="m0 0 9 3 29 14 29 13 33 13 37 12 39 9 41 7 38 7-1 57-3 65-2 31-5 33-5 25-10 39-12 35-10 24-9 20-14 24-11 18-8 12-10 14-12 16-9 11-14 15-21 21-11 9-11 10-10 8-12 10-11 7-16 10-14 8-12 5-6-1-14-6-14-9-19-12-13-11-11-9-15-13-10-9-8-7-16-16-7-8-11-13-15-20-14-21-13-21-13-23-9-19-12-31-11-33-11-44-5-26-3-28-2-29-3-67-1-25v-25l5-2 76-13 25-6 20-5 38-13 22-9 23-10 18-8 16-8z" fill="#FDFDFD"/>
<path transform="translate(1022,415)" d="m0 0 5 1 5 8 2 5v3l5-3 4-2h8l1 1v10l-3 5-4 4-1 3 5 1 4 4v5l-6 1-2 5v10l9-3h11l7 4 1 6-2 2 1 5 7 10 4-1 5-1 1 1v9l-5 8-2 1h-12l-6 12-7 6h-9l-4-4 1-3h2l-2-7-5-1-4 10v14l4 11 7 7 10 4 8 1 5-5 1-2v-6l-2-3 1-5 7-7 4-7 4 2 6 10 4 4-5 7v7l2 4 10 3h8l5-3 4-5 2-10-2-5-5-3h-7l-1-5 4-9 2-2 9 1 8 1 1-12-6-7-1-2v-8l4-6 6-3h8l6 3 4 6v8l-4 6-6 5v11l9 1 5 5 1 2v10l-3 1-5-2-6 1-4 6v9l4 11 3 3 6 1 5-4 1-17 9-11 3-6 3 1 2 10 3 6v8l-4 5v7l2 3 10-1 10-9 6-9 3-7v-13l-2-4-7-1-3 7-2 6-4 1-5-5-3-6v-7l5-9 2-2-1-5-3-3-3-12v-6l1-1h19v-5l4-3 4-1-2-7 3-8 6-4 7-1 7-7 5-3-1-6-1-3 7-1 6 4 3 4 5-1 6-5 3-1h8l6 3 3 4 1 3v10l-5 6-5 1-3-2v-6l-8 2-4 4-6 17-8 16-1 5 2 8v8l-3 13-5 9-7 6-13 26-11 12-5 5 10 2 6 3 2 5-3 5-5 3h-2l2 6-1 12-8 16 1 6 3 4-1 7-6 1-15-2-71-9-17-2-44-2h-45l-38 2-33 4-45 7-12 2h-8l-1-2v-9l2-7-6-13-2-8 1-12-8-5-1-6 4-5v-2l-11-7-7-8-9-17-5-10-10-10-5-13-1-6v-9l1-5v-8l-6-10-6-19-2-6-4-2-7-2v6l-2 2-7-1-4-5-2-6 4-10 6-5 7-1 8 4 7 6 6-8 4-2h6l-1 10 8 6 2 4h8l6 4 4 7-1 7-3 2 9 2 2 2-1 4 3 1h17l-1 11-3 8-4 7 6 7 1 2v13l-4 6-5 2-3-2-3-12h-6l-3 4-1 3v8l4 12 8 10 6 5 4 2h7l2-3-1-9-4-5 1-5 3-4 3-14 4 2 4 8 6 7-1 13 6 7 5 1 6-4 2-6v-15l-3-5h-8l-5 1-1-1v-10l5-6 4-2h7l-1-10-8-6-2-3-1-10 4-7 6-3h7l7 3 4 7v6l-6 11 2 12 10-3h6l5 6 1 7-1 2-9 1-4 4v11l3 6 6 4h16l3-1 2-5-1-9-2-3v-4l4-4 7-12 3 3 3 6 8 8-1 4-2 4 1 7 4 4h9l8-3 8-6 4-8 1-5v-11l-2-9-3-4h-4l-1 6 2 2-1 5-3 2h-8l-5-3-6-10-2-4-13-1-6-7-1-2v-8l1-2 6 1h4l8-11-2-5-1-4 6-5 7-2 10 2 5 2 1-11-4-4-5-3 2-4 6-4h3l-1-3-7-6-2-6v-7l1-1h7l6 3 4 1 7-14zm1 4-4 6-4 13 1 7 1 3h-5l-2 9v19l11-3 9 1 5 4h3v-16l1-4-6-2v-2l-3-3-1-3 4-8-5-16zm-24 13v5l5 4 2-1-1-5-3-3zm263 17-5 3-2 7 1 1h6v-4l5 1 2 2 1 5 3-1v-10l-4-3zm-482 0-5 3-1 5 1 1h6l6-2h3l-2-5zm28 1-3 2-3 9 1 4 2-1 2-5 3-4-1-5zm428 1-2 4 2 1-1 3-7 3-3 4 1 5 7 7h2l3-14 3-6 1-4-3-3zm-446 5 1 3zm249 1m-253 2 4 2v-2zm5 1-1 2 3 1-1-3zm21 0-2 4 1 9 2 6h-2l-2-7-4-4-5 3 2 12 4 10 2 3 3-1 1-4v-11l4-2 5-7-1-5-4-5zm432 6-5 5-2 5-1 9 2 6 4-4 5-17v-4zm-413 7-1 4 5 1 1-4zm383 0-4 2v2l5-1 1-3zm-192 2-5 3-3 5-2 7v7l3 7 2 2 7-1 3-2 1-15 1-3v-7l-4-3zm-41 3v4l9 4-3 2-8 5-7 10 2 4 3-3 4-7 1-1h9l8-4-1-6-9-7-2-1zm80 1-5 3v2h6l4-5zm-238 2-4 4-3 8v7h2l6-15 1-4zm228 5-3 4 5 3 2 1h8l-5-5-4-3zm-217 5-10 7-4 3 1 4 4 4 2 6 2 23 1 19h2l3-9 2-22-4-1h-2l2-5-2-3 1-13 3-3h4l1 2h17v6l-4 4v2l5-1 5-8v-7l-21-3-3-5zm374 0-5 5-17 3v3l22 1 2-3 6 5-2 11v9l-4 1 2 16 2 2 4-17 2-11 5-9 3-4v-6l-4 2-10-7zm20 0-1 2 2 4 2-2v-3zm-323 4-5 4-1 7 3 5 2 2h6l5-4 1-2v-7l-5-5zm228 0-6 6v6l5 6 6 1 5-6 1-6-4-6-1-1zm-83 3-2 1 1 5 5 9 3 9v2l-4-1-2 4 2 3 5-1 4-6 1-11v-6l-4-6-1-1zm-61 2-5 4 1 6-2 2 1 7 3 7 5 4 1-3-2-5 1-5 1-9 4-5-4-3zm197 4 1 5 2 1 2-1-2-4zm-141 7v3l2 2h3l-2-4zm186 0-5 5-1 2v13l3 10h3l4-8 1-5v-13l-3-4zm-417 2-2 3v13l3 9h4l2-7v-11l-3-6zm33 6-6 10 1 2 4-4 2-4 6 1 1-2-6-3zm348 0v2l4 1 1-3zm-282 1-3 6-1 9-3 1h-4l1 5 7 7 8 22 5 7 13 7h10l9-5 2-3-1-4h-21l-6-3-4-5-3-9 1-9 3-5 10-3-1-5-2-2-9 1-3 2-5 1-1-12zm271 9-1 2v8l2 3h2v-13zm-324 1-2 6 1 6h3l1-2v-9zm274-6-3 4-2 6-7-1-8-2-4 3 1 4 9 3 5 6v12l-6 8v2l-5 2-8 2-11-1-4-1-1 1v6l3 3 10 3 8-1 9-5 9-8 3-11 4-10 9-11 3-1v-2h-6l-5 1-1-11zm-112 8-1 2 3 16 7 16 9 10 8 4 9 1 9-2 5-3 5-4 2-3 4 2 3 1v-10l-1-5v-7l1-6-4-4-6 6-1 16-4 6-3 2h-9l-10-3-11-8-6-4-2-4-2-14zm-57 9-1 7-1 16 11 12 9 4h16l7-4 10-12-3-1-7 4-19 3-9-1-5-5-2-4v-6l2-5-6-8zm248 5-1 11h3l1-5-2-6zm-46 7-5 6v12l-2 5v3h5l2-2v-7l-1-6 3-11zm-285 4-1 1-1 8-3 4 1 6 4 3 5 3 9 7h8l5-2v-6l-5-1-6 3-6-2-5-4-4-10 2-4v-6zm141 3-9 14-4 6h27l-2-4-7-10-3-6zm-178 14 2 5 10 7 11 8 7-1 1-4-2-2-12-2-8-5-6-6zm120 2-1 3h-2l-1 4h7l4-2-1-4zm113 0-2 4 1 1h8l-1-4zm-159 3-1 8 10-1v-3l-7-4zm204 1v4l5 3h2l-1-6-1-1zm16 1-2 1 1 5 6 2 8-1 5-4v-2zm-129 3-57 3-36 4-33 6-11 1 4 4 5 2h7l15-3 6-1 26-2 32-3 35-2h55l18 1h14l3-1v-2h10l4-1v-2h-17l-10-2-42-2zm-122 2-6 5 2 1 6-3v-3zm285 0-3 3 3 2 10-1 2-4zm-35 10v3l5-1v-2zm-139 1-44 2-13 2 1 2 10 5 3 11v12l-5 2-41 5-3 3 4 2 40-5 47-3 6-1-1-4-8-4v-2h2l-1-10 1-7 5-4 7-2h37l6 4 2 8v15l-4 2v4l5 1 48 2 3-1v-3l-15-3-7-2-1-20 6-2 9-6v-2l-55-1zm143 7v3l3 1-1-4zm-129 1-2 2v13h33l1-3-1-10-1-1-12-1zm-111 4v2l3-1zm27 0-16 2-1 1 1 10 1 5 16-1 15-2v-14l-1-1zm182 0v15l4 1 21 2h6l2-15-17-3zm-212 5-11 8 5 9 9 6 2-1-2-18-1-4zm204 5v8l2 1v-9zm-238 2-1 2 1 11 4 4 4-4v-9l-4-4zm330 0-2 2-1 10 3 6 3-1 3-5 1-9-2-3zm-149 3v3l2 1-1-4zm110 0 2 2 2-2zm-278 6-1 10h3v-9zm12 2-2 4 4-1v-3zm227 3-2 2 3 2h10v-3zm68 1v4l4 1-2-5zm-179 2-44 2-31 4-25 5-11 1 3 3h6l2 2h11l24-3 34-3 36-1h55l-2-2-11-3v-1l24-1 1-2-29-1zm150 2-1 3 5-1-1-2zm8 2-1 2 4-1zm3 2 3 2h3v-2zm14 1-1 3h5l-2-3zm-81 2 1 4h2l-1-4z" fill="#A3997A"/>
<path transform="translate(1023,859)" d="m0 0 9 3 29 14 29 13 33 13 37 12 39 9 41 7 38 7-1 57-3 65-2 31-5 33-5 25-10 39-12 35-10 24-9 20-14 24-11 18-8 12-10 14-12 16-9 11-14 15-21 21-11 9-11 10-10 8-12 10-11 7-16 10-14 8-12 5-6-1-14-6-14-9-19-12-13-11-11-9-15-13-10-9-8-7-16-16-7-8-11-13-15-20-14-21-13-21-13-23-9-19-12-31-11-33-11-44-5-26-3-28-2-29-3-67-1-25v-25l5-2 76-13 25-6 20-5 38-13 22-9 23-10 18-8 16-8zm-1 24-16 7-29 14-31 13-31 11-28 8-33 7-53 9-12 2v71l3 51 4 41 6 32 7 27 10 33 11 28 7 16 10 19 15 25 13 19 10 14 10 13 9 10 7 8 15 15 8 7 9 8 7 6h2v2l11 9 15 12 31 19 10 5h3l1-1v1l7-1 16-8 17-10 14-10 11-9 13-11 8-7 10-9 8-7 10-10 7-8 10-11 10-13 14-19 14-22 15-26 11-23 8-20 12-36 10-40 5-28 3-24 2-28 1-22 1-42 3-35v-9l-3-2-53-9-35-7-28-7-41-14-30-13-38-18-8-3z" fill="#FEFEFE"/>
<path transform="translate(1022,883)" d="m0 0 8 1 30 14 31 14 26 10 34 11 35 8 27 5 47 8 3 2-1 22-2 22-1 42-1 22-3 36-4 28-6 29-8 30-9 27-6 16-10 23-11 21-12 20-14 21-12 16-11 14-14 15-7 8-10 10-11 9-7 7-14 11-9 8-17 12-24 14-11 5h-5-1l-5-1-17-9-11-7-12-8-16-13-9-7v-2l-4-2-14-12-17-16-12-12-7-8-14-18-16-23-12-19-15-26-12-26-11-29-10-33-7-28-5-28-5-54-2-38v-71l36-6 44-8 29-7 32-10 21-8 30-13 29-14zm1 17-16 8-32 15-29 12-36 12-23 6-35 7-43 7-4 2-1 2v11l5 90 4 46 6 33 11 41 9 26 9 22 8 16 11 20 11 18 10 15 14 19 11 13 9 10 21 21 10 8 14 12 18 14 18 11 17 10h6l21-11 21-14 14-11 11-10 11-9 13-12 16-16 11-14 10-13 16-23 16-27 12-23 13-32 9-27 10-40 5-29 4-42 2-46 2-30v-28l-4-3-34-6-28-5-27-6-25-7-28-10-30-13-25-12-17-8z" fill="#A39879"/>
<path transform="translate(945,1013)" d="m0 0 5 2 11 10 14 10 16 10 7 7 7 12 8-6 8-4 7-2h10l13 4 7 5 8 10 3 8-1 24v2l14 5 10 5-4-3v-2h6l4 5 9 3 5-1 3-1 5 5 8 4 23 5 1 1 11 1h35l3 1 1 2-1 13-6 16-6 8-4 2-11-11-13-10-18-11-28-14h-7l-6 2h-6l1 3v22h2v-16l2 4v23l-1 7-1 1-12-1-14-3-10-5-13-12-8-9-9-16 5 12 7 11 5 6 2 11h2v-6l4 1 6 5 8 15 6 15 3 13 1 1v18l-5 13-6 8-6 5-6 3h-2l4-16 6-11 4-8 2-7v-12l-6-16 4 17 1 10-5 12-3 3-1-13-5 30-4 10-7 8-13 8-8 3h-2l2-6 9-19 10-27 2-10-10 25-7 17-7 15-4 6-9 9-8 4-10 3-9-1-4-2 2-5 9-11 6-9-11 12-11 13-8 7-4 3-12 1-2 1-16 2-12 6-4-1 7-8 13-12 10-8 13-12 8-7 11-11 9-11 10-13 10-15 8-13 5-10-7 11-9 14-13 18-11 13-11 12-15 15-6 5h-2l1-27 5-4 13-10 14-11 14-12 8-8 10-13 12-20 5-10 3 1 1 2 2-4-6-2-1-9-1-31 1-3-3-1-2-2 1 11 1 3v15l-6 5-5 2-8-1 2-5-4 2-5-1-6-3 1-4 5-7-10 10-5-1-6-7-2-4 4 1 1 2 5-1 6-6h2v-2l8-7 3-5-11-4-8-5-3-4v-3l6-1-8-2-10-6-6-9v-1l8 1 11 4 6 2 5 8 2 1-2-7h2l-5-5-6-3-5-10v-2l17 4 5 2-3-5-9-12-25-16-13-11-6-7z" fill="#A39879"/>
<path transform="translate(758,1636)" d="m0 0h22l4 3 14 36 17 44 11 29 3 7 4-9 12-31 7-17 6-16 11-28 7-17 6-1 35 1v5l-1 1-14 1-5 1-1 61v42l1 22 19 2 1 5-1 1h-58l-1-1v-5l4-1h10l5-1 1-5 1-117h-2l-3 10-10 26-14 36-18 46-6 12h-3l-6-12-16-41-25-65-4-10v-2h-2l1 114 2 4 7 4 11 2 1 5-1 1h-40l-8-1v-4l7-2 12-4 1-3v-118l-5-2-14-1-2-5 1-1z" fill="#A99F82"/>
<path transform="translate(933,1636)" d="m0 0h72l13 1 13 4 9 5 10 8 8 10 9 17 3 11 1 6v20l-4 17-8 15-6 8h-2l-2 4-11 8-11 5-8 2-12 1h-72l-3-1v-6l17-1 2-1 1-3v-118l-1-3-5-1-14-1v-6zm41 7-3 1-1 3v118l2 6 12 1h22l11-2 12-6 9-8 7-12 4-14 1-9v-26l-2-15-5-13-8-11-7-6-12-6-6-1z" fill="#A89E81"/>
<path transform="translate(1090,1636)" d="m0 0h61v5l-6 2-14 2v99l3 13 7 10 11 7 3 1h18l9-4 8-6 7-8 4-10 1-6v-90l-2-4-3-2-14-3-2-4 1-1h49l1 3-1 2-14 3-5 4-1 7-1 83-3 12-6 12-6 7-9 7-9 4-11 2h-8l-16-4-9-5-10-9-7-11-4-10-1-4-1-93-3-3-16-1-2-3z" fill="#AAA083"/>
<path transform="translate(1014,1150)" d="m0 0 3 1 1 3-7 11-10 11-10 7-10 5-10 3h-9l5-5 13-10 13-11v-1l-12 10-14 10-12 7-5 1h-9v-3l18-13 13-11 3-4-8 7-18 13-14 9-2 1h-13v-2l14-9 14-11 7-6-9 6-7 6-16 10-7 3h-6l-6-3 5-5 11-6 8-6-14 8-11 5h-7l-10-5-1-3 21-9 19-10 9-2h15l10-1 13 1h40z" fill="#A39879"/>
<path transform="translate(898,1482)" d="m0 0h11l13 5 10 8 7 11 4 11 1 12 7 3 28 8 8 2v7l-2 2-7-1-26-9-13-5-2 4-5 6-10 6-13 3h-9l-10-2-9-4-2-2 1-4 7-10 11-7 5-3 8-1-9-12-4-8-2-13z" fill="#FDFDFD"/>
<path transform="translate(1138,1482)" d="m0 0h11l2 3v12l-3 9-7 11-3 2-1 3 7 1 11 6 10 9 4 8-3 3-9 4-9 2h-10l-12-3-8-4-7-7-2-5-20 7-22 8h-5l-2-4v-4l9-3 28-8 7-1v-11l5-15 7-9 7-7 12-6z" fill="#FDFDFD"/>
<path transform="translate(1293,1636)" d="m0 0h14l1 4-1 2-21 2v123l1 2 10 2 10 1 1 4-1 1h-62l-1-5 18-2 3-2 1-19v-105l-21-2-2-5z" fill="#A89E81"/>
<path transform="translate(880,1636)" d="m0 0 37 1v5l-1 1-14 1-5 1-1 61v42l1 22 19 2 1 5-1 1h-58l-1-1v-5l4-1h10l5-1 1-5v-118l-2-8 1-2z" fill="#A89D80"/>
<path transform="translate(586,968)" d="m0 0 5 1 8 7 7 11 3 8v6l5-3 9-6 10-4h11l5 2 1 4-2 11-7 12-11 10-9 4-8 2h-11l-12-6-7-8-5-10-2-11 1-13 3-10z" fill="#FEFEFE"/>
<path transform="translate(799,1436)" d="m0 0 12 4 10 9 6 9 4 12 1 11-3 11-5 7-10 7-9 3h-19l-12-5-9-7-3-4 1-4 9-7 7-3 10-2h11l-6-13-1-5v-11l3-10z" fill="#FEFEFE"/>
<path transform="translate(1476,1026)" d="m0 0 3 1 5 12 1 6v9l-4 14-6 9-9 8-10 4h-10l-10-4-9-6-7-7-7-14-2-9 1-7 2-3h9l11 4 6 4 6 5 4 4 3-7 7-11 7-7z" fill="#FEFEFE"/>
<path transform="translate(1459,967)" d="m0 0 4 2 6 10 2 7v18l-4 11-7 9-7 6-7 3h-12l-14-5-9-7-7-8-4-8-2-8v-7l4-2h11l13 4 10 8 1 1 5-15 8-11z" fill="#FEFEFE"/>
<path transform="translate(679,1316)" d="m0 0h5l7 8 5 10 2 7v13l-4 13-6 10-7 5-10 3h-10l-12-4-10-6-7-7-7-14v-5l4-2 6-1h10l11 2 11 5-1-2v-10l4-13 6-9z" fill="#FEFEFE"/>
<path transform="translate(1365,1316)" d="m0 0 5 1 8 11 4 13v10l-1 2 14-6 17-1 10 2 1 5-5 12-9 10-10 6-12 4h-10l-10-3-6-4-6-8-5-14v-15l3-10 6-10z" fill="#FEFEFE"/>
<path transform="translate(569,1027)" d="m0 0 7 1 9 7 6 7 7 14 5-5 7-6 11-5 5-1h8l2 4v10l-5 14-7 9-7 6-11 6-4 1h-11l-12-6-8-8-5-10-3-10v-11l3-11z" fill="#FDFDFD"/>
<path transform="translate(1248,1436)" d="m0 0 3 1 3 8v18l-4 9-2 5h11l15 4 9 6 3 3-2 6-9 7-10 5-4 1h-18l-11-4-9-7-5-8-2-8 1-13 4-11 5-8 5-6 10-6z" fill="#FEFEFE"/>
<path transform="translate(711,1358)" d="m0 0 6 2 7 7 6 10 2 7v21l-3 9-7 9-10 5-6 1h-10l-11-2-12-7-9-10-4-7 1-5 12-4h16l12 3-1-16 2-10 6-10z" fill="#FEFEFE"/>
<path transform="translate(650,848)" d="m0 0 5 1 6 10 4 16v8l-1 4 11-4 5-1h12l11 4 1 1-1 9-7 9-7 6-10 5-10 2h-12l-10-3-6-5-6-10-3-9v-15l5-13 6-9z" fill="#FEFEFE"/>
<path transform="translate(1354,802)" d="m0 0 5 1 6 4 8 8 5 10 2 10v11l-3 12-4 6-6 5-10 4h-21l-10-4-8-6-7-8-3-5 2-4 8-4 7-2h15l8 3-2-11 1-16 4-10z" fill="#FEFEFE"/>
<path transform="translate(844,1461)" d="m0 0 10 2 10 5 6 5 7 10 6 16v10l-4 9-7 8-8 5-10 3-10 1-12-2-10-4-7-7 2-5 8-7 14-7 4-1h8l-7-11-3-10v-13z" fill="#FEFEFE"/>
<path transform="translate(795,722)" d="m0 0h9l2 5v13l-4 15-4 7 16 2 10 5 9 8 1 4-7 7-8 4-7 2h-17l-10-3-10-6-6-7-3-8-1-9 2-10 6-12 8-9 9-6z" fill="#FEFEFE"/>
<path transform="translate(690,802)" d="m0 0 4 1 5 7 2 7v25l7-2h16l12 5 4 3-2 5-4 6-9 8-11 5-3 1h-20l-10-4-8-7-4-9-1-5v-16l4-12 8-11 8-6z" fill="#FEFEFE"/>
<path transform="translate(561,1094)" d="m0 0 6 1 11 6 7 6 7 11v2l4-4 7-9 9-6 10-3h5l2 2 1 5v13l-4 11-9 12-10 8-8 3h-12l-8-3-8-6-7-8-5-10-2-11 1-14z" fill="#FEFEFE"/>
<path transform="translate(654,1263)" d="m0 0 5 3 6 11 2 8v11l-3 11-6 12-7 7-8 3-10 1-11-2-12-6-8-8-6-12-2-6v-7l2-2h16l10 3 12 8 2-11 5-12 8-9z" fill="#FEFEFE"/>
<path transform="translate(1419,1157)" d="m0 0 8 1 10 6 7 8 5 10 2 1 2-4 8-8 10-6 10-3 4 1 2 3v15l-4 11-6 10-10 9-11 4-10 1-11-4-8-7-6-7-5-11-2-9 1-12 3-8z" fill="#FEFEFE"/>
<path transform="translate(1484,1094)" d="m0 0 4 1 2 7v19l-3 9-7 10-9 8-10 4h-12l-8-3-9-7-7-8-6-12-1-3v-16l1-4 6-1 13 4 10 8 6 10 3-4 4-6 7-8z" fill="#FEFEFE"/>
<path transform="translate(635,1208)" d="m0 0 4 1 5 12 1 4v12l-5 15-7 9-8 7-9 3-13-1-11-5-8-7-6-7-5-12-1-4v-10l2-2h11l9 3 11 7 4 4h2l4-11 8-11z" fill="#FEFEFE"/>
<path transform="translate(1392,1263)" d="m0 0 5 2 7 6 6 10 4 16 18-9 4-1h16l2 2-1 10-4 9-4 6-5 5-6 5-9 4-11 2-9-1-8-3-5-4-6-9-4-10-1-5v-14l3-10 6-9z" fill="#FEFEFE"/>
<path transform="translate(1302,758)" d="m0 0 7 1 9 5 8 8 7 14 1 3v17l-4 10-5 6-12 6-4 1h-22l-12-5-3-2v-2l-4-2-4-6 2-4 6-5 9-4 5-1h15v-3l-4-14v-9l4-13z" fill="#FEFEFE"/>
<path transform="translate(1244,722)" d="m0 0h7l10 4 10 8 7 11 4 10v15l-4 9-6 7-11 6-8 2h-19l-10-4-10-8 1-5 9-8 10-5 3-1h13l-6-13-2-9v-14z" fill="#FEFEFE"/>
<path transform="translate(752,1400)" d="m0 0 5 2 9 6 7 9 5 13 1 10-2 14-6 10-10 6-7 2h-18l-12-4-9-7-6-7-1-6 8-5 10-3 6-1h8l8 2-4-11v-14l4-11z" fill="#FEFEFE"/>
<path transform="translate(1200,1461)" d="m0 0 5 1 2 7v10l-3 12-4 6-3 4 11 2 14 7 10 8 1 3-6 7-8 4-13 3-13-1-12-4-10-9-4-6-2-6v-10l4-12 5-9 8-9 14-7z" fill="#FEFEFE"/>
<path transform="translate(1335,1358)" d="m0 0 4 2 6 9 2 7v19l-1 2 13-3h16l11 4 2 4-6 10-5 6-12 8-14 3h-8l-10-2-9-6-6-9-3-12v-11l3-12 7-11 8-7z" fill="#FEFEFE"/>
<path transform="translate(613,905)" d="m0 0 5 1 8 10 5 12 1 5v9l12-6 8-2h14l6 2 1 4-2 8-5 9-8 8-15 7-4 1h-17l-9-5-6-7-6-12-1-3v-17l3-9 6-10z" fill="#FEFEFE"/>
<path transform="translate(1395,847)" d="m0 0 5 3 8 8 6 12 2 7v13l-4 11-6 9-6 5-5 2-6 1h-11l-12-3-10-6-8-8-5-10 1-5 12-4h12l10 3 6 2-1-2v-11l4-16 6-9z" fill="#FEFEFE"/>
<path transform="translate(623,1157)" d="m0 0h6l2 2 3 15-3 16-5 9-9 10-10 6-9 1-13-3-9-6-8-9-6-13-1-3v-16l2-4 8 1 14 7 9 7 3 4v2l2-1 5-10 8-9z" fill="#FEFEFE"/>
<path transform="translate(1410,1208)" d="m0 0 6 1 9 7 5 6 5 10 1 6 5-3 9-7 8-4 4-1h12l2 2v8l-3 11-5 10-9 9-12 6-9 2-10-1-8-4-5-4-7-10-4-11-1-3v-15l5-13z" fill="#FEFEFE"/>
<path transform="translate(1294,1400)" d="m0 0 4 2 4 8 2 6v12l-4 13 9-2h8l12 3 10 5 1 4-6 9-9 7-9 4-5 1h-17l-10-3-8-6-4-6-2-6v-21l5-13 7-9 8-6z" fill="#FEFEFE"/>
<path transform="translate(1431,905)" d="m0 0 4 1 6 7 5 10 2 8v12l-2 9-6 10-5 5-5 4-5 2h-16l-14-5-9-7-7-8-4-10v-6l2-2 5-1h15l12 4 7 4v-10l4-13 8-11z" fill="#FEFEFE"/>
<path transform="translate(740,758)" d="m0 0h6l3 6 1 4v17l-5 14 4-1h13l10 3 11 7 1 4-7 8-6 5-11 4h-22l-10-4-6-4-4-5-4-9-1-11 2-11 7-13 9-9z" fill="#FEFEFE"/>
<path transform="translate(858,712)" d="m0 0h16l10 4 4 4v7l-6 12-9 10-10 5-9 2h-10l-12-3-6-4 2-9 5-10 9-10z" fill="#FEFEFE"/>
<path transform="translate(1174,712)" d="m0 0h15l10 4 9 6 6 7 7 14v7l-12 5-4 1h-14l-13-5-11-10-7-14v-7l5-5z" fill="#FDFDFD"/>
<path transform="translate(1030,1055)" d="m0 0h7l12 4 10 9 5 8 1 3v20l-1 4-6-1-9-4 1-6-4-10-5-6-4-2h-8l-6 3-5 8v7l2 2-8 10-5 5-7-14v-13l7-13 4-5 9-6z" fill="#FEFEFE"/>
<path transform="translate(958,1119)" d="m0 0h34v4l-6 4-5 1-14-3h-6l-16 5-24 7-36 8-11 2h-19l-2-2-7-3 1-2 45-7 30-6z" fill="#A39879"/>
<path transform="translate(947,1028)" d="m0 0 5 2 18 15 6 15 5 17-9-2-9-4-5-4-5-10v-3l6 1h2l-10-9-2-3-2-11z" fill="#A39879"/>
<path transform="translate(1065,1107)" d="m0 0 12 4 8 3-3 3-13 7-15-1v2l5 2 5 3 13-1 12-4v-5l-6 1 2-4 4-1 12 6-1 3-10 3-19 5h-4l-1 4-1-3-15-10-1-3 9-6z" fill="#FEFEFE"/>
<path transform="translate(783,1856)" d="m0 0 3 1 7 18 12 36 1 5 7 1v1h-21v-2l6-1-13-38-3-10h-2l2-9z" fill="#FEFEFE"/>
<path transform="translate(914,1153)" d="m0 0h5l-2 4-21 10-13 4-7-1-8-6v-3l19-3 13-4z" fill="#A39879"/>
<path transform="translate(829,1858)" d="m0 0 7 1 7 8 18 27 9 14-1 4-4-1-9-12-24-36-3-3z" fill="#FEFEFE"/>
<path transform="translate(1206,1878)" d="m0 0 1 4 7 11 8 11 6 8v2l7 2v2h-21v-2l4-1-7-14-9-13-3-1 2-4z" fill="#FEFEFE"/>
<path transform="translate(893,1145)" d="m0 0h2l2 8-8 3-14 2h-15l-5-5 1-3 22-2z" fill="#A39879"/>
<path transform="translate(995,1861)" d="m0 0 3 1 11 15 19 28 2 2 1 10-4-2-8-11-11-17-12-20z" fill="#FEFEFE"/>
<path transform="translate(998,1202)" d="m0 0h2l-2 4-12 12-11 9-14 11-5 1-1-5 2-5 20-12 10-7z" fill="#A39879"/>
<path transform="translate(1319,1865)" d="m0 0 5 1 12 17 12 19 6 9v2h-5l-7-9-19-29-4-7z" fill="#FEFEFE"/>
<path transform="translate(928,1137)" d="m0 0h5l-5 7-9 6-13 2h-7l-2-2 1-1v-5l16-4z" fill="#A39879"/>
<path transform="translate(965,1127)" d="m0 0 9 1-3 7-9 9-9 6h-12l5-4 10-10 4-7z" fill="#A39879"/>
<path transform="translate(1048,1102)" d="m0 0 8 1 5 3-2 4-8 7-4 3-10-3-6-1h-4l2-4 9 1 5 2-2-10 1-2 4 1z" fill="#FEFEFE"/>
<path transform="translate(955,1129)" d="m0 0h2l-2 4-7 8-8 7-8 3h-7l2-4 8-9 4-4z" fill="#A39879"/>
<path transform="translate(1196,1135)" d="m0 0h2v11l-4 13-7 13h-2l-1-8 3-13 7-14z" fill="#FEFEFE"/>
<path transform="translate(1119,1887)" d="m0 0h3l4 19 5 8 5 2h8l7-4 4-7h2l-2 6-6 7-6 2h-8l-8-4-7-8-1-3z" fill="#FEFEFE"/>
<path transform="translate(996,1197)" d="m0 0h2l-1 4-21 14-11 7h-3v-6l5-3 16-8 10-6z" fill="#A39879"/>
<path transform="translate(974,1048)" d="m0 0 5 1 9 7 6 7 1 3-8-1-8-5-4-8z" fill="#A39879"/>
<path transform="translate(1045,1157)" d="m0 0h3l-1 11-2 1-1-9-2 1-4 16-5 13-4 8-1-3 6-16 3-11v-7l3-3z" fill="#FEFEFE"/>
<path transform="translate(974,1135)" d="m0 0 4 4 1 3-8 6-5 2h-6l12-14z" fill="#A39879"/>
<path transform="translate(1022,1184)" d="m0 0 1 3-9 17-5 7h-2l2-5 12-20z" fill="#FEFEFE"/>
<path transform="translate(1233,454)" d="m0 0 4 2-2 4-7 3-3 3-3-2 7-7z" fill="#B2A990"/>
<path transform="translate(980,1143)" d="m0 0 5 1-1 5-1 1h-9l2-4z" fill="#A39879"/>
<path transform="translate(874,1641)" d="m0 0 3 1 1 6h-2l-2 8-1-3-3-1z" fill="#FEFEFE"/>
<path transform="translate(684,1908)" d="m0 0 2 1-2 7-6 2-5-1 4-2 5-4z" fill="#FEFEFE"/>
<path transform="translate(1030,1150)" d="m0 0h11l2 2-2 1h-11z" fill="#FEFEFE"/>
<path transform="translate(954,1162)" d="m0 0 2 1-10 9-5 4-2-1 7-7z" fill="#FEFEFE"/>
<path transform="translate(649,1888)" d="m0 0 1 4-1 12-2 2-1-3 1-11z" fill="#FEFEFE"/>
<path transform="translate(1059,1915)" d="m0 0 15 1-1 2h-15z" fill="#FEFEFE"/>
<path transform="translate(670,1881)" d="m0 0 2 1-1 8h-3l-1-5z" fill="#FEFEFE"/>
<path transform="translate(994,1162)" d="m0 0 2 1-7 7-6 5-2-1 7-7z" fill="#FEFEFE"/>
<path transform="translate(1010,1137)" d="m0 0 3 3v8l-4-5v-5z" fill="#FEFEFE"/>
<path transform="translate(991,1146)" d="m0 0 6 1 1 3h-8z" fill="#A39879"/>
<path transform="translate(649,1914)" d="m0 0h3l1 3-4 1-7-1 4-2z" fill="#FEFEFE"/>
<path transform="translate(711,1916)" d="m0 0h10l1 2h-11z" fill="#FEFEFE"/>
<path transform="translate(1080,1916)" d="m0 0h11v2h-10z" fill="#FEFEFE"/>
<path transform="translate(772,1888)" d="m0 0h1l-1 8-3 6-1-3z" fill="#FEFEFE"/>
<path transform="translate(731,1887)" d="m0 0 3 1-5 2h-5l3-2z" fill="#FEFEFE"/>
<path transform="translate(697,1916)" d="m0 0h7l-1 2h-5z" fill="#FEFEFE"/>
<path transform="translate(825,1915)" d="m0 0 4 1-1 1h-8v-1z" fill="#FEFEFE"/>
<path transform="translate(1193,1890)" d="m0 0v3l-4 2 2-4z" fill="#FEFEFE"/>
<path transform="translate(739,1883)" d="m0 0h2l-1 3-6 1z" fill="#FEFEFE"/>
<path transform="translate(1368,1916)" d="m0 0h8v1h-8z" fill="#FEFEFE"/>
<path transform="translate(1183,1893)" d="m0 0 1 3h-2z" fill="#EBE9E3"/>
<path transform="translate(1270,1916)" d="m0 0 4 1z" fill="#E7E4DC"/>
<path transform="translate(773,1884)" d="m0 0 1 4z" fill="#FEFEFE"/>
<path transform="translate(774,1881)" d="m0 0" fill="#FEFEFE"/>
<path transform="translate(1196,1916)" d="m0 0 2 1z" fill="#FEFEFE"/>
<path transform="translate(767,1902)" d="m0 0" fill="#FEFEFE"/>
<path transform="translate(775,1878)" d="m0 0" fill="#FEFEFE"/>
<path transform="translate(776,1875)" d="m0 0" fill="#FEFEFE"/>
<path transform="translate(777,1873)" d="m0 0" fill="#FEFEFE"/>
<path transform="translate(1403,1916)" d="m0 0" fill="#FEFEFE"/>
<path transform="translate(954,1916)" d="m0 0" fill="#FEFEFE"/>
<path transform="translate(766,1904)" d="m0 0" fill="#FEFEFE"/>
<path transform="translate(991,1895)" d="m0 0" fill="#FEFEFE"/>
<path transform="translate(723,1890)" d="m0 0" fill="#FEFEFE"/>
<path transform="translate(778,1871)" d="m0 0" fill="#FEFEFE"/>
</svg>
