<?xml version="1.0" encoding="UTF-8"?>
<svg version="1.1" viewBox="0 0 2048 1152" width="1280" height="1280" xmlns="http://www.w3.org/2000/svg">
<path transform="translate(231,382)" d="m0 0 19 1 15 3 15 5 16 8 14 9 10 8 10 9 20 20 9 11 5 6 5-5 8-10 12-14 20-20 13-10 13-8 15-7 19-5 16-1 19 2 20 6 16 8 14 9 13 11 15 15 11 14 10 15 9 16 11 23 9 24 6 22 4 18v5l2 1 1 10 2 13 1 9 1 7-1 1h1l1 8-2 3h2v37 3l-2 11v8l-3 9v4h-2l1 6-3 7-2 5-3 7-6 12h-2l-1 5h-2l-2 5-15 15h-3v2l-5 2-1 2-5 2-7 3-9 3-5 1-3-1v2l-14 1-3-1-4 1-8-1-2-2-16-2-18-6-15-8-14-11-18-18-13-17-13-18-16-25-17-28-17-29-12-19-5-2-10 4-4 3-3 3-4 5v3h-2l-6 12-3 5h-2l-2 6-3 5-4 7v3l-4 3v3h-2l-2 6-12 20-3 4-8 14h-2l-2 4-4 7-3 1-1 4-4 6h-2l-1 4-3 4h-2l-2 4-3 4h-2l-2 4-4 4h-2l-2 5-8 5-5 5-11 7h-2v2l-4-1v2l-7 3-14 4-11 1-2 1-3-1-7 1-3-1h-5-4l-2-2h-8v-2l-9-1-15-5-15-8-13-11-10-11-8-13-7-14-6-19-4-21-1-9v-43l3-29 6-31 7-25 8-22 9-20 10-19 10-15 9-12 12-14 8-8 11-9 13-9 17-9 15-5 14-3zm252 56-6 2h-4l-7 2-8 3-3 1v3l-6 2v2l-5 1-2 4-5 1v3l-3 1-7 8-6 5-2 3-1 3h-2l-4 7v2h-2l-5 11-1 7-1 2v7l11 18 9 15 17 28 13 22 24 38 20 30 11 14 11 12 10 7 9 3 6 1h8l10-2 8-4 7-6 7-11 5-15 2-13v-42l-3-29-5-26-6-22-7-20-12-25-10-16-11-13-11-11-12-8-8-4-3 1-9-2zm-248 13m6 0v2l-10-1-12 3v2l-5 1-4 2-11 7-3 3-4 5-7 5v3h-2l-2 3v3l-4 1-5 9v2l-2 1-6 10-2 4-8 17-1 7h-2l-1 4 1 2h-2l-2 5v5h-2l-1 7-1 3 1 2-2 1v5l-2 1v10l-2 1-1 3v4l-2 10 1 5-2 1v7l-1 9-1 10v12l1 6-1 2 1 9h2l-2 5 3 7 4 10 7 9 7 6 10 4 6 1h8l11-2 12-6 12-11 7-7 11-14 13-18 17-26 16-25 14-22 11-17 16-25 8-13-2-5-16-21-12-14-13-13-14-10-7-3h-5l-1-2h-4l-10-1z" fill="#0166E5"/>
<path transform="translate(769,395)" d="m0 0h73l9 16 15 27 16 29 15 27 16 29 15 27 32 58 5 9 6-10 15-27 16-29 15-27 48-87 15-27 8-14 1-1h71v367h-59l-1-279-15 27-16 29-13 23-16 29-45 81-3 4h-55l-6-10-100-180-3-3 1 278-1 1h-59z" fill="#092730"/>
<path transform="translate(1828,482)" d="m0 0h21l19 3 18 6 13 7 12 9 12 12 2 3 1-33h56v273h-56l-1-36-11 13-13 11-16 9-13 5-12 3-17 2h-15l-21-3-16-5-16-8-14-10-13-12-10-13-8-13-8-17-5-15-4-20-1-8-1-20 1-20 3-19 5-18 7-16 7-13 8-11 9-10 9-9 14-10 16-8 18-6zm12 52-15 3-15 6-11 8-10 10-9 14-6 16-3 14-1 8v25l3 19 5 15 7 13 8 10 10 9 10 6 15 5 13 2h13l14-2 13-4 15-8 10-8 7-7 9-14 3-7v-84l-8-15-9-11-9-8-14-8-10-4-15-3z" fill="#092730"/>
<path transform="translate(1335,482)" d="m0 0h23l20 3 16 5 16 8 11 7 13 12 8 9 10 15 9 19 6 19 4 21 1 9v38h-200l4 17 7 16 7 10 8 9 13 9 13 6 12 3 9 1h19l16-2 15-4 17-8 13-9 8-7 4 1 11 14 12 14 6 9-10 9-18 12-16 8-16 6-19 5-14 2-13 1h-18l-24-3-18-5-18-8-14-9-10-8-14-14-11-16-9-17-7-21-3-15-1-8v-38l3-19 6-21 6-14 9-15 10-13 14-14 14-10 15-8 17-6 12-3zm1 50-17 4-13 7-10 8-8 9-8 13-6 16-3 14 1 1h143v-9l-4-17-5-12-7-10-8-9-14-9-15-5-7-1z" fill="#092730"/>
<path transform="translate(480,382)" d="m0 0 18 1 17 4 16 6 16 9 12 9 12 11 11 11 11 14 10 15 9 16 11 23 9 24 6 22 4 18v5l2 1 1 10 2 13 1 9 1 7-1 1h1l1 8-2 3h2v37 3l-2 11v8l-3 9v4h-2l1 6-3 7-2 5-3 7-6 12h-2l-1 5h-2l-2 5-15 15h-3v2l-5 2-1 2-5 2-7 3-9 3-5 1-3-1v2l-14 1-3-1-4 1-8-1-2-4h-2l-2-9v-5l2-2 2-1 2-9 1-2-2-13 1-10 2-5-3-5-2-2h14l10-2 8-4 6-5 7-11 5-15 2-13v-42l-3-29-5-26-6-22-7-20-12-25-10-16-11-13-10-10-12-8-10-5-1 2-14-2-11 1-2 1v-2h-2l-1 2-7 2-7 3-2 1-2-1v3l-6 2v2l-5 2-15 15-4 2-2 5-5 5h-2l-1 4-3 5h-2l-1 4-3 7-1 8-1 1v6l-2 1-12-18-8-11-10-14-3-4v-2h-2l-2-4-2-1 1-2 5-5 8-10 12-14 20-20 13-10 13-8 15-7 19-5z" fill="#017FFC"/>
<path transform="translate(1545,408)" d="m0 0h56l1 2v78l82 1v48l-82 1v127l2 19 5 15 6 8 8 5 9 3 7 1h23l16-2h6v48l-17 4-15 2h-29l-18-3-12-4-12-6-10-8-9-10-8-14-5-14-4-20-1-12v-140h-54v-48h54v-80z" fill="#092730"/>
<path transform="translate(225,446)" d="m0 0h14l15 3 9 4-2 2-9-1-6-2-10 1-9 1-8 3-5 2-2 2h-3l-2 2-4 2-2 2-6 5-4 5-4 3h-2v3h-2l-2 6-4 2-6 12-6 9-4 8-6 13-2 7h-2v6h-2l-2 10h-2l1 4-2 6-3 11-1 8-2 4v3l-2 11v5l-1 3-1 15-1 9v12l1 7-1 1 1 8v4l3 9 4 10 7 9 8 6 8 3 6 1h8l11-2 12-6 12-11 11-12 14-19 22-33 16-25 14-22 11-17 16-25 8-13 2-2 10 15 13 20 7 11 6 11 6 10-2 3h-3l-9 3-4 3-3 3-4 5v3h-2l-6 12-3 5h-2l-2 6-3 5-4 7v3l-4 3v3h-2l-2 6-12 20-3 4-8 14h-2l-2 4-4 7-3 1-1 4-4 6h-2l-1 4-3 4h-2l-2 4-3 4h-2l-2 4-4 4h-2l-2 5-8 5-5 5-11 7h-2v2l-4-1v2l-7 3-14 4-11 1-2 1-3-1-7 1-3-1h-5-4l-2-2h-8v-2l-9-1-15-5-15-8-13-11-10-11-8-13-7-14-6-19-4-21-1-9v-41l2 4 5 2 4-1 3 1v2l4-1 5 1 5-1 12 1 9-3 11-2 2-6 2-5 4-27 6-26 10-29 11-23 10-16 11-14 10-10 13-9 11-5z" fill="#007FFC"/>
<path transform="translate(484,650)" d="m0 0 4 4 10 15 11 14 10 11 10 7 9 3v2l3 1 3 5-3 9 1 11 1 9-4 10-2 3h-2l2 10v4l2 1h-10l-16-4-12-5-11-6-14-11-18-18-10-13v-3h4l2-4 1-3h3l6-9 3-6h2v-9h2l5-6 2-1 2-7 2-10h2z" fill="#0173F1"/>
<path transform="translate(78,541)" d="m0 0 3 3h10l6-3 2 1 1 4 7 2 1 3 5-2h16l5-1 7 5-7 32-3 22-2 5-2 7-12 2-7 2-7 1-11-1-3 1-7-1v-2l-9 1-4-3-1-6 3-29 6-31z" fill="#0073F1"/>
<path transform="translate(356,566)" d="m0 0 4 4 9 15-2 3h-3l-9 3-4 3-3 3-4 5v3h-2l-6 12-3 5h-2l-2 6-3 5-4 7v3l-4 3v3h-2l-2 6-12 20-3 4-8 14h-2l-2 4-4 7-3 1-1 4-4 6h-2l-1 4-3 4h-2l-2 4-3 4h-2l-2 4-4 4h-2l-2 5-8 5-5 5-11 7h-2v2l-4-1v2l-7 3-14 4-11 1-2 1-3-1-7 1-3-1h-5-4l-2-2 2-1 26-2 16-4 17-8 12-9 10-9 12-12 13-17 11-15 13-20 12-20 12-21 13-23 12-21z" fill="#7789A3"/>
<path transform="translate(225,446)" d="m0 0h14l15 3 9 4-2 2-9-1-6-2-10 1-9 1-8 3-5 2-2 2h-3l-2 2-4 2-2 2-6 5-4 5-4 3h-2v3h-2l-2 6-4 2-6 12-6 9-4 8-6 13-2 7h-2v6h-2l-2 10h-2l1 4-2 6-3 11-1 8-2 4v3l-2 11v5l-1 3-1 15-1 9v12l1 7-1 1 1 8v4l-2 2-3-18v-34l3-26 6-29 6-20 7-19 10-21 10-16 11-14 10-10 13-9 11-5z" fill="#7789A3"/>
<path transform="translate(469,433)" d="m0 0h20l15 4 2 2h-2l-1 2-14-2-11 1-2 1v-2h-2l-1 2-7 2-7 3-2 1-2-1v3l-6 2v2l-5 2-15 15-4 2-2 5-5 5h-2l-1 4-3 5h-2l-1 4-3 7-1 8-1 1v6l-2 1-9-14 5-9 10-14 13-16 17-17 14-9 13-5z" fill="#7789A3"/>
<path transform="translate(648,611)" d="m0 0h1l1 8-2 3h2v37 3l-2 11v8l-3 9v4h-2l1 6-3 7-2 5-3 7-6 12h-2l-1 5h-2l-2 5-15 15h-3v2l-5 2-1 2-5 2-7 3-9 3-5 1-3-1v2l-14 1-3-1-4 1-8-1-2-3 26-2 15-4 12-5 12-8 11-10 10-14 8-15 7-21 4-20 2-17 1-41z" fill="#7789A3"/>
<path transform="translate(553,772)" d="m0 0 2 1z" fill="#7789A3"/>
<path transform="translate(134,667)" d="m0 0" fill="#7789A3"/>
<path transform="translate(165,771)" d="m0 0" fill="#7789A3"/>
<path transform="translate(538,770)" d="m0 0" fill="#7789A3"/>
<path transform="translate(534,770)" d="m0 0" fill="#7789A3"/>
<path transform="translate(159,770)" d="m0 0" fill="#7789A3"/>
<path transform="translate(588,766)" d="m0 0" fill="#7789A3"/>
<path transform="translate(611,752)" d="m0 0" fill="#7789A3"/>
<path transform="translate(242,749)" d="m0 0" fill="#7789A3"/>
<path transform="translate(255,737)" d="m0 0" fill="#7789A3"/>
<path transform="translate(645,690)" d="m0 0" fill="#7789A3"/>
<path transform="translate(648,672)" d="m0 0" fill="#7789A3"/>
<path transform="translate(309,663)" d="m0 0" fill="#7789A3"/>
<path transform="translate(650,645)" d="m0 0" fill="#7789A3"/>
<path transform="translate(133,630)" d="m0 0" fill="#7789A3"/>
<path transform="translate(331,624)" d="m0 0" fill="#7789A3"/>
<path transform="translate(649,620)" d="m0 0" fill="#7789A3"/>
<path transform="translate(648,604)" d="m0 0" fill="#7789A3"/>
<path transform="translate(136,603)" d="m0 0" fill="#7789A3"/>
<path transform="translate(648,602)" d="m0 0" fill="#7789A3"/>
<path transform="translate(349,596)" d="m0 0" fill="#7789A3"/>
<path transform="translate(647,595)" d="m0 0" fill="#7789A3"/>
<path transform="translate(647,590)" d="m0 0" fill="#7789A3"/>
<path transform="translate(365,587)" d="m0 0" fill="#7789A3"/>
<path transform="translate(643,567)" d="m0 0" fill="#7789A3"/>
<path transform="translate(165,511)" d="m0 0" fill="#7789A3"/>
<path transform="translate(177,491)" d="m0 0" fill="#7789A3"/>
<path transform="translate(200,467)" d="m0 0" fill="#7789A3"/>
<path transform="translate(203,465)" d="m0 0" fill="#7789A3"/>
<path transform="translate(206,463)" d="m0 0" fill="#7789A3"/>
<path transform="translate(231,453)" d="m0 0" fill="#7789A3"/>
<path transform="translate(246,452)" d="m0 0" fill="#7789A3"/>
<path transform="translate(456,447)" d="m0 0" fill="#7789A3"/>
<path transform="translate(460,445)" d="m0 0" fill="#7789A3"/>
<path transform="translate(506,441)" d="m0 0" fill="#7789A3"/>
<path transform="translate(505,440)" d="m0 0" fill="#7789A3"/>
</svg>
