<?xml version="1.0" encoding="UTF-8"?>
<svg version="1.1" viewBox="0 0 2048 445" width="1280" height="1280" xmlns="http://www.w3.org/2000/svg">
<path transform="translate(1642,2)" d="m0 0h9v229l-3 21-5 18-7 16-7 11-8 10-8 9-11 9-13 8-16 7-15 4-16 2h-19l-21-3-16-5-16-8-11-7-13-12-8-9-10-15-7-15-5-15-3-15-1-9v-27l3-17 6-18 9-17 9-12 9-10 14-11 14-8 15-6 18-4 10-1h13l18 2 17 4 16 6 10 5v52l-5-2-18-10-15-6-13-3h-22l-16 4-14 7-10 8-9 12-5 11-4 15-1 8v17l3 17 7 16 7 10 4 5 12 9 13 6 13 3 14 1 16-2 13-5 11-7 10-10 8-13 6-16 3-15 1-14 1-178 4-12 6-9 7-7 9-5z" fill="#42B549"/>
<path transform="translate(1e3 102)" d="m0 0h15l17 2 16 4 13 5 16 9 11 9 12 12 10 14 8 15 7 21 3 18 1 13v11l-2 18-4 15-6 15-10 16-10 11-4 5-11 9-14 9-12 6-17 5-15 2h-19l-22-3-21-7-14-7v-52l11 6 16 8 14 5 9 2h24l15-4 14-7 12-11 7-10 6-14 3-15v-25l-3-14-5-12-7-12-10-10-14-8-11-4-9-2h-24l-14 4-10 5-10 8-9 11-7 14-4 13-3 17-1 220-1 1-13-1-11-4-9-7-8-9-4-8-2-6-1-9v-171l1-17 5-25 6-16 9-17 9-12 8-9 14-11 14-8 19-7 16-3z" fill="#43B54A"/>
<path transform="translate(1256,102)" d="m0 0h29l19 4 16 6 17 9 16 12 9 8 9 11 7 11 7 14 5 17 3 19v27h-195l6 18 7 12 7 8 12 9 16 8 14 4h22l12-4 11-6 10-8 9-8 7-8 4-1 16 12 18 13 3 2-1 5-9 13-11 12-11 9-10 6-15 6-15 4-14 2h-20l-18-3-17-5-23-11-14-10-10-9-9-9-10-15-8-16-5-15-3-15v-30l3-16 5-15 8-16 7-11 9-11 11-11 15-11 16-8 18-6zm9 46-14 3-16 8-11 9-9 10-9 15v3h132l-1-6-6-12-9-10-9-7-15-8-13-4-8-1z" fill="#42B549"/>
<path transform="translate(1922,102)" d="m0 0h15l19 2 21 5 16 7 12 7 10 8 10 10 10 15 7 16 4 15 2 14v140h-10l-13-4-9-6-8-8-6-11-2-8-1-99-2-12-5-12-7-10-9-8-10-6-14-5-10-2h-24l-16 4-15 8-11 10-9 14-4 8-4 15-1 8v15l3 16 6 15 10 14 10 9 15 8 15 4h23l13-4 12-7 13-12 9-11 2-1v60l-13 9-15 8-13 4-15 2h-17l-20-3-15-5-16-8-11-8-10-9-9-10-9-14-8-16-5-15-3-15-1-8v-27l3-19 7-21 9-16 9-11 13-13 10-7 14-8 17-6 20-4z" fill="#43B54A"/>
<path transform="translate(259,102)" d="m0 0h13l17 2 19 5 19 9 17 12 11 10 9 11 10 15 8 19 4 18 1 8v26l-3 19-6 18-9 17-10 13-14 14-14 10-17 9-15 5-15 3-9 1h-19l-20-3-16-5-16-8-11-7-13-11-8-8-9-12-9-16-7-21-3-21v-19l3-20 5-16 7-16 8-12 9-11 9-9 15-11 16-8 14-5 12-3zm-5 47-16 4-12 6-10 8-8 9-6 10-5 14-2 9-1 10v10l2 15 5 15 6 11 8 10 11 9 12 6 15 4 14 1 16-2 15-5 11-7 9-8 9-13 5-11 4-16 1-17-2-17-5-15-6-11-11-12-7-6-16-8-13-3z" fill="#43B54A"/>
<path transform="translate(735,102)" d="m0 0h12l17 2 19 5 21 10 11 8 14 12 9 10 10 15 7 15 4 13 3 17v31l-4 20-6 17-9 16-9 11-15 15-13 9-17 9-18 6-21 3h-19l-20-3-21-7-16-9-12-9-12-11-9-11-8-13-7-15-5-19-2-18v-14l3-22 7-21 9-17 9-12 11-12 16-12 12-7 16-6 16-4zm-6 47-16 4-15 8-11 10-7 10-6 13-4 16v28l4 16 8 16 10 12 11 8 10 5 15 4 14 1 16-2 13-4 12-7 11-10 7-10 6-13 4-15 1-10v-10l-2-16-4-12-7-13-9-10-9-8-16-8-13-3z" fill="#43B54A"/>
<path transform="translate(460,2)" d="m0 0h8v189l23-1 11-3 9-7 15-25 16-27 12-20 1-1h55l-6 11-12 21-14 24-14 22-8 10-7 8 5 1 14 7 10 9 6 7 6 13 3 11 1 7v83h-10l-13-4-9-6-8-8-6-12-2-7-1-35-3-13-6-9-9-6-8-2-51-1v103h-10l-13-4-9-6-8-8-6-12-2-8v-263l4-13 7-10 9-8 11-5z" fill="#42B549"/>
<path transform="translate(38,49)" d="m0 0h10v58h82v46l-1 1h-81l1 119 2 10 4 6 5 3 10 2 60 1v46h-69l-15-3-12-5-10-7-9-9-8-14-5-15-2-14v-186l3-11 4-8 9-10 9-6z" fill="#43B549"/>
<path transform="translate(1709,107)" d="m0 0h48l1 1v232l-1 1h-9l-9-2-10-5-10-9-6-10-3-8-1-6z" fill="#46B64D"/>
<path transform="translate(1726,31)" d="m0 0h14l9 4 7 6 5 10 1 11-2 9-5 8-7 6-11 3h-7l-11-3-10-9-4-10v-14l4-10 7-7z" fill="#44B54B"/>
</svg>
